<svg xmlns="http://www.w3.org/2000/svg" viewBox="0 0 75.41 61.25"><defs><style>.cls-1{fill:#fff;}</style></defs><title>twitter</title><g id="Capa_2" data-name="Capa 2"><g id="Capa_1-2" data-name="Capa 1"><path class="cls-1" d="M75.41,7.27a32.39,32.39,0,0,1-7.75,8q0,.67,0,2a43.91,43.91,0,0,1-1.82,12.42,44.88,44.88,0,0,1-5.53,11.89,46.74,46.74,0,0,1-8.83,10.07,39.31,39.31,0,0,1-12.35,7,45.18,45.18,0,0,1-15.46,2.61A42.92,42.92,0,0,1,0,54.31a33.08,33.08,0,0,0,3.73.19,30.26,30.26,0,0,0,19.19-6.6A15.49,15.49,0,0,1,8.47,37.18a19.58,19.58,0,0,0,2.92.24,16,16,0,0,0,4.07-.53,15.21,15.21,0,0,1-8.88-5.34,14.93,14.93,0,0,1-3.52-9.83v-.19a15.33,15.33,0,0,0,7,2A15.44,15.44,0,0,1,5,18a15.06,15.06,0,0,1-1.87-7.37,15.14,15.14,0,0,1,2.11-7.8A43.81,43.81,0,0,0,19.36,14.24,43.07,43.07,0,0,0,37.13,19a17.17,17.17,0,0,1-.38-3.54A14.9,14.9,0,0,1,41.27,4.52a15.49,15.49,0,0,1,22.23.36,30.31,30.31,0,0,0,9.81-3.73,15,15,0,0,1-6.79,8.52A30.8,30.8,0,0,0,75.41,7.27Z"/></g></g></svg>