<svg xmlns="http://www.w3.org/2000/svg" viewBox="0 0 69.46 70"><defs><style>.cls-1{fill:#fff;}</style></defs><title>whatsapp</title><g id="Capa_2" data-name="Capa 2"><g id="Capa_1-2" data-name="Capa 1"><path class="cls-1" d="M44.54,38.53a20.61,20.61,0,0,1,4.41,2q3.82,2,4,2.4a1.93,1.93,0,0,1,.09.68A9.53,9.53,0,0,1,52.32,47a6.06,6.06,0,0,1-3.21,3,10.71,10.71,0,0,1-4.61,1.2q-2.58,0-8.59-2.8A25.81,25.81,0,0,1,28.22,43a59.58,59.58,0,0,1-6.69-8.37q-3.26-4.84-3.21-8.77v-.36a10,10,0,0,1,3.35-7.14,3.42,3.42,0,0,1,2.35-1,7.2,7.2,0,0,1,.81.07,7.33,7.33,0,0,0,.86.07,1.86,1.86,0,0,1,1.2.29,3.27,3.27,0,0,1,.7,1.24q.36.9,1.49,4a26.43,26.43,0,0,1,1.13,3.39,4.59,4.59,0,0,1-1.56,2.6q-1.56,1.65-1.56,2.1a1.29,1.29,0,0,0,.23.68A20.36,20.36,0,0,0,31.93,38a28.83,28.83,0,0,0,6.83,4.57,2,2,0,0,0,1,.32q.68,0,2.44-2.19T44.54,38.53Zm-9.18,24a27.63,27.63,0,0,0,11-2.26A28,28,0,0,0,61.5,45.11a27.94,27.94,0,0,0,0-22A28,28,0,0,0,46.37,8a27.94,27.94,0,0,0-22,0A28,28,0,0,0,9.22,23.08a28.12,28.12,0,0,0,3.17,27.65L8.82,61.27l10.94-3.48A27.81,27.81,0,0,0,35.36,62.49ZM35.36,0A33.13,33.13,0,0,1,48.59,2.71,33.69,33.69,0,0,1,66.74,20.87a33.6,33.6,0,0,1,0,26.45A33.69,33.69,0,0,1,48.59,65.48a33.13,33.13,0,0,1-13.23,2.71,33.57,33.57,0,0,1-16.51-4.25L0,70,6.15,51.69A33.9,33.9,0,0,1,4,20.87,33.69,33.69,0,0,1,22.14,2.71,33.13,33.13,0,0,1,35.36,0Z"/></g></g></svg>