<?xml version="1.0" encoding="utf-8"?>
<!-- Generator: Adobe Illustrator 21.0.0, SVG Export Plug-In . SVG Version: 6.00 Build 0)  -->
<svg version="1.1" id="Capa_1" xmlns="http://www.w3.org/2000/svg" xmlns:xlink="http://www.w3.org/1999/xlink" x="0px" y="0px"
	 viewBox="0 0 1559.1 1559.1" style="enable-background:new 0 0 1559.1 1559.1;" xml:space="preserve">
<style type="text/css">
	.st0{fill-rule:evenodd;clip-rule:evenodd;fill:#E4354D;}
	.st1{fill:#E6344D;}
	.st2{fill:#FFFFFF;}
</style>
<title>vih</title>
<g>
	<g>
		<path class="st0" d="M1146.3,1193.6c0,17.5,0.3,37.5,0,57.3c-0.2,21.4-12.1,34.8-30.7,34.5c-18.2-0.3-29-12.8-29-34.2
			c0-189.1,0-378,0-567c0-21.4,11.9-35.6,29.5-35.6c17.7,0.1,30.2,14.6,30.2,35.8c0.1,135.3,0,270.2,0.3,405.3
			c0,8.4,0.7,17.3,3.7,24.9c5.4,14.7,19.8,22.9,35.5,21.9c16.4-0.8,27-9.9,32.3-24.6c2.6-7.2,3.2-15.6,3.2-23.6
			c0-142.1,0-284.1,0-426.4c0-35.6-9.1-68.7-30.1-98.1c-2.9-4-6.2-7.7-9.3-11.4c-45.1,31.5-88.1,28.7-128.2-8
			c-17-15.4-33.8-30.9-51.5-45.7c-3.8-3.2-11.5-4.8-16.4-3.4c-32.6,8.6-64.9,8.8-97.5,0.5c-6.1-1.5-14.6,0.1-20.2,3.6
			c-43.5,27.2-86.3,55.4-129.8,82.7c-9.9,6.3-13.9,12.9-13.9,24.9c0.6,212.9,0.4,425.8,0.3,638.8c0,5.8,0.2,12.1-1.4,17.8
			c-3.7,12.3-17.4,21.5-29.8,20.6c-14.2-1-26.3-12.4-28.2-26.9c-0.5-4.3-0.3-8.9-0.3-13.4c0-220.7,0.2-441.6-0.3-662.6
			c0-17,6-27.9,20.2-36.7c44.7-28,88.9-56.9,133.1-85.2c-15.4-19.2-30.4-38-46-57.5c-3.6,1.7-8.3,4.1-13,7.1
			c-46.4,28.1-92.6,56.6-139.4,84.1c-8,4.8-18.4,7.7-27.9,7.7c-70.8,0.8-141.5,0.4-212.4,0.5c-83.1,0-150.9,66.1-151.3,149.2
			c-0.8,148.2-0.3,296.3-0.2,444.5c0,23.6,15.6,40.6,36.3,41c21,0.5,37.2-16,38.6-39.3c0.3-4.5,0.1-9.1,0.1-13.6
			c0-132.6,0-265.1,0-397.9c0-22.3,12.2-37,30.1-36.6c17.5,0.5,29.4,15,29.4,36.4c0,188.3,0,376.8,0,565.3c0,22-11.4,35.1-30.1,35.1
			c-18.7,0-29.4-12.6-29.5-35.1c0-19-0.1-37.9-0.2-56.8c0-1.1-0.5-2,0.2,0.8c-19.7,0-38.7,2.7-56.6-0.6
			c-44.6-8.1-77.2-47.7-77.5-93.7c-0.6-150.6-1.5-301.3,0.4-451.8c1.4-100.7,74.9-183.8,173.3-202.2c13.2-2.4,26.8-2.4,41.1-3.4
			c-66.2-100.1-67.1-195.4,26.2-278.4c54.6-48.4,134-52.4,197.2-16.6c40.7,23,68.6,57.2,84.4,101c15.6,43.2,14.5,86.7-1.7,133.9
			c22.8-13.9,41.9-25,60.4-37c2.6-1.8,3.9-7.7,3.4-11.5c-11.3-101,55.2-190.7,155.1-208.5c91.8-16.3,187.9,53.2,204.7,148.8
			c2.7,15.1,3.6,30.6,3,46.1c-0.4,11.9,2.3,20.1,12,28.1c19.2,15.7,37.7,32.6,55.8,49.8c26.3,24.8,37.7,55.2,32.5,91.8
			c-0.7,5.5,1.4,13,5,17c40.8,45.1,58.8,98,58.7,158.4c-0.6,141.6-0.2,283.4-0.4,425c0,52.7-28.5,92.7-75.8,102.6
			C1186.2,1196.7,1167,1193.6,1146.3,1193.6z M521.4,183.9c-69.1,0-124.7,57.3-125,129.2c-0.5,71.5,55.1,129.7,124.3,130.3
			c67.2,0.3,123.1-58.4,123.3-129.6C644.3,242.5,589.1,183.9,521.4,183.9z M1058.1,312.8c-0.5-72.5-55.2-129.3-125.2-128.9
			c-67.5,0.5-121.8,58.7-121.6,130.9c0.2,71,56.6,129.3,124.3,128.6C1004.3,442.5,1058.4,384.8,1058.1,312.8z M1098.7,401.1
			c-16.4,20.6-32.6,40.6-49.2,61.4c15.8,14,32.6,29.5,50.1,44.1c4.6,4,11.5,6.4,17.6,7c16.2,2,28.8-6,36.2-20.7
			c8.2-16.9,5.8-35.4-7.5-48.3C1130.2,429.4,1113.7,414.9,1098.7,401.1z"/>
	</g>
	<g>
		<path class="st1" d="M1472.1,1194.2c0,142.1-115.2,257.2-257.2,257.2c-142,0-257.2-115.1-257.2-257.2
			c0-142,115.2-257.1,257.2-257.1C1356.9,937,1472.1,1052.1,1472.1,1194.2z"/>
	</g>
	<path class="st2" d="M1170,1306.7c-6.6,0-13.3-2.6-18.3-7.6l-84.2-84.4c-10.1-10.1-10.1-26.5,0-36.6c10.1-10.2,26.6-10,36.6,0
		l65.9,66.1l155.4-154.9c10.1-10.1,26.5-10.1,36.7,0c10.1,10.1,10.1,26.5-0.1,36.6l-173.8,173.2
		C1183.3,1304.2,1176.6,1306.7,1170,1306.7z"/>
</g>
</svg>
