<?xml version="1.0" encoding="utf-8"?>
<!-- Generator: Adobe Illustrator 21.0.0, SVG Export Plug-In . SVG Version: 6.00 Build 0)  -->
<svg version="1.1" id="Capa_1" xmlns="http://www.w3.org/2000/svg" xmlns:xlink="http://www.w3.org/1999/xlink" x="0px" y="0px"
	 viewBox="0 0 1559.1 1559.1" style="enable-background:new 0 0 1559.1 1559.1;" xml:space="preserve">
<style type="text/css">
	.st0{fill:#E5364E;}
	.st1{fill:none;}
	.st2{fill:#E6344D;}
	.st3{fill:#FFFFFF;}
</style>
<title>mac</title>
<g id="Capa_2">
	<g id="Capa_1-2">
		<path class="st0" d="M460.4,293.3L460.4,293.3l638.2,0.2c6.5,0.1,11.8,5.4,11.9,11.9v948.4c-0.1,6.5-5.3,11.8-11.9,11.9
			l-638.2-0.2c-6.5-0.1-11.8-5.4-11.9-11.9V305.2C448.6,298.7,453.9,293.4,460.4,293.3 M460.4,231.6c-40.6,0.1-73.5,33-73.6,73.6
			v948.4c0.1,40.6,33,73.5,73.6,73.7l638.2,0.2c40.6-0.1,73.5-33,73.6-73.7V305.4c-0.1-40.6-33-73.5-73.6-73.7L460.4,231.6
			L460.4,231.6z"/>
		<path class="st0" d="M777,598.6c-55.9,0-101.3-45.4-101.2-101.3c0-55.9,45.4-101.3,101.3-101.2c55.9,0,101.2,45.4,101.2,101.3
			C878.2,553.3,832.9,598.6,777,598.6z M777,452.2c-24.9,0-45.1,20.2-45.1,45.2c0,24.9,20.2,45.1,45.2,45.1
			c24.9,0,45.1-20.2,45.1-45.1C822.1,472.4,801.9,452.2,777,452.2L777,452.2z"/>
		<path class="st0" d="M777,1163c-55.9,0-101.3-45.4-101.3-101.3c0-55.9,45.4-101.3,101.3-101.3c55.9,0,101.3,45.4,101.3,101.3
			C878.2,1117.6,832.9,1163,777,1163z M777,1016.6c-24.9,0-45.1,20.2-45.1,45.2s20.2,45.1,45.2,45.1c24.9,0,45.1-20.2,45.1-45.2
			C822.1,1036.8,801.9,1016.6,777,1016.6L777,1016.6z"/>
		<path class="st0" d="M561.2,1163c-15.5,0-28.1-12.6-28.1-28.1l0,0V424.1c0-15.5,12.6-28.1,28.1-28.1s28.1,12.6,28.1,28.1l0,0
			v710.8C589.3,1150.4,576.7,1163,561.2,1163C561.2,1163,561.2,1163,561.2,1163z"/>
		<path class="st0" d="M997.9,1163c-15.5,0-28.1-12.6-28.1-28.1l0,0V424.1c0-15.5,12.6-28.1,28.1-28.1c15.5,0,28.1,12.6,28.1,28.1
			l0,0v710.8C1026,1150.4,1013.4,1163,997.9,1163C997.9,1163,997.9,1163,997.9,1163z"/>
		<rect class="st1" width="1559.1" height="1559.1"/>
	</g>
</g>
<g>
	<path class="st2" d="M1472.1,1194.2c0,142.1-115.2,257.2-257.2,257.2c-142,0-257.2-115.1-257.2-257.2
		c0-142,115.2-257.1,257.2-257.1C1356.9,937,1472.1,1052.1,1472.1,1194.2z"/>
</g>
<path class="st3" d="M1170,1306.7c-6.6,0-13.3-2.6-18.3-7.6l-84.2-84.4c-10.1-10.1-10.1-26.5,0-36.6c10.1-10.2,26.6-10,36.6,0
	l65.9,66.1l155.4-154.9c10.1-10.1,26.5-10.1,36.7,0c10.1,10.1,10.1,26.5-0.1,36.6l-173.8,173.2
	C1183.3,1304.2,1176.6,1306.7,1170,1306.7z"/>
</svg>
