<?xml version="1.0" encoding="utf-8"?>
<!-- Generator: Adobe Illustrator 21.0.0, SVG Export Plug-In . SVG Version: 6.00 Build 0)  -->
<svg version="1.1" id="Capa_1" xmlns="http://www.w3.org/2000/svg" xmlns:xlink="http://www.w3.org/1999/xlink" x="0px" y="0px"
	 viewBox="0 0 1559.1 1559.1" style="enable-background:new 0 0 1559.1 1559.1;" xml:space="preserve">
<style type="text/css">
	.st0{fill:#E5364E;}
	.st1{fill:none;}
	.st2{fill:#E6344D;}
	.st3{fill:#FFFFFF;}
</style>
<title>salud</title>
<g id="Capa_2">
	<g id="Capa_1-2">
		<path class="st0" d="M765.2,835.9c-20.2,0-36.5-16.3-36.5-36.5V580.5c0-20.2,16.3-36.5,36.5-36.5s36.5,16.3,36.5,36.5l0,0v218.9
			C801.7,819.6,785.3,835.9,765.2,835.9L765.2,835.9z"/>
		<path class="st0" d="M880.2,726.5H650c-20.2,0-36.5-16.3-36.5-36.5s16.3-36.5,36.5-36.5l0,0h230.2c20.2,0,36.5,16.3,36.5,36.5
			S900.4,726.5,880.2,726.5z"/>
		<g id="_Grupo_">
			<path class="st0" d="M1148.6,1410.1h-168c-64.5-0.1-116.7-52.3-116.8-116.8V1062H686.2v231.3c0,64.4-52.4,116.8-116.7,116.8h-168
				c-67.4-0.1-122.1-54.7-122.2-122.2V588.1c0-19.2,15.6-34.8,34.8-34.8c19.2,0,34.8,15.6,34.8,34.8v699.9c0,29,23.5,52.5,52.5,52.5
				h168c26-0.1,47.1-21.2,47.1-47.2v-253.5c0-26.2,21.3-47.4,47.5-47.4h222.1c26.2,0,47.3,21.3,47.3,47.4v253.5
				c0,26,21.1,47.1,47.2,47.2h168c29,0,52.5-33.5,52.5-74.6V591.4c0-19.2,15.6-34.8,34.8-34.8c19.2,0,34.8,15.6,34.8,34.8v674.5
				C1270.8,1346.8,1217.1,1410.1,1148.6,1410.1z"/>
			<path class="st0" d="M1397,752.8c-8.4,0-16.6-3-22.9-8.6L777.1,222c-0.1,0-0.1-0.1-0.2-0.1c-1.6-1.1-3.1-2.3-4.4-3.6L185.2,743.9
				c-14.7,12.5-36.6,10.7-49.1-4c-12-14.1-10.8-35.2,2.7-47.9l587.7-525.5c26.2-23.2,65.6-23.3,91.5-1c2.1,1.5,4.1,3.2,6,5
				l596,521.2c14.5,12.7,15.9,34.7,3.2,49.1C1416.6,748.4,1407.1,752.7,1397,752.8L1397,752.8z M779,223.3L779,223.3z M774,218.9
				L774,218.9C774,218.9,774,218.9,774,218.9z"/>
		</g>
		<rect class="st1" width="1559.1" height="1559.1"/>
	</g>
</g>
<g>
	<path class="st2" d="M1472.1,1194.2c0,142.1-115.2,257.2-257.2,257.2c-142,0-257.2-115.1-257.2-257.2
		c0-142,115.2-257.1,257.2-257.1C1356.9,937,1472.1,1052.1,1472.1,1194.2z"/>
</g>
<path class="st3" d="M1170,1306.7c-6.6,0-13.3-2.6-18.3-7.6l-84.2-84.4c-10.1-10.1-10.1-26.5,0-36.6c10.1-10.2,26.6-10,36.6,0
	l65.9,66.1l155.4-154.9c10.1-10.1,26.5-10.1,36.7,0c10.1,10.1,10.1,26.5-0.1,36.6l-173.8,173.2
	C1183.3,1304.2,1176.6,1306.7,1170,1306.7z"/>
</svg>
