<?xml version="1.0" encoding="utf-8"?>
<!-- Generator: Adobe Illustrator 21.0.0, SVG Export Plug-In . SVG Version: 6.00 Build 0)  -->
<svg version="1.1" id="Capa_1" xmlns="http://www.w3.org/2000/svg" xmlns:xlink="http://www.w3.org/1999/xlink" x="0px" y="0px"
	 viewBox="0 0 1559.1 1559.1" style="enable-background:new 0 0 1559.1 1559.1;" xml:space="preserve">
<style type="text/css">
	.st0{fill:#E6354D;}
	.st1{fill:none;}
	.st2{fill:#E6344D;}
	.st3{fill:#FFFFFF;}
</style>
<title>vih</title>
<g id="Capa_2">
	<g id="Capa_1-2">
		<path class="st0" d="M580.8,1184.8c-36.1,0.1-70.7-14.3-96.1-39.8l-69.9-69.9c-53.1-53.1-53.1-139.2,0-192.3l418.9-419
			c12.1-12.1,31.6-12.1,43.7,0c12.1,12.1,12.1,31.6,0,43.7L458.4,926.3c-29,29-29,76,0,105c0,0,0,0,0,0l70,69.9
			c28,28.1,76.9,28,104.9,0l421.1-421.2c12.1-12.1,31.6-12.1,43.7,0c12.1,12.1,12.1,31.6,0,43.7l0,0l-421.2,421.2
			C651.5,1170.5,616.8,1184.8,580.8,1184.8z"/>
		<path class="st0" d="M1159.4,792.4c-8.2,0-16-3.2-21.8-9L776.5,422.3c-12.1-12.1-12.1-31.6,0-43.7c12.1-12.1,31.6-12.1,43.7,0
			l361,361.1c12.1,12,12.1,31.6,0,43.7C1175.4,789.1,1167.6,792.4,1159.4,792.4L1159.4,792.4z"/>
		<path class="st0" d="M1306,502.7c-8.2,0-16-3.2-21.8-9L1066,275.4c-12.1-12.1-12.1-31.6,0-43.7s31.6-12.1,43.7,0L1327.9,450
			c12,12.1,12,31.6-0.1,43.7C1322,499.4,1314.2,502.7,1306,502.7z"/>
		<path class="st0" d="M253,1336.3c-17,0-30.9-13.8-30.9-30.9c0-8.2,3.3-16.1,9.1-21.9l218.2-218.2c12.1-12.1,31.6-12.1,43.7,0
			c12.1,12.1,12.1,31.6,0,43.7l-218.2,218.2C269.1,1333.1,261.2,1336.4,253,1336.3z"/>
		<path class="st0" d="M927.7,553.1c-17,0-30.9-13.8-30.9-30.9c0-8.2,3.3-16.1,9.1-21.9L1117,289.3c12.3-11.8,31.8-11.5,43.6,0.8
			c11.5,12,11.5,30.9,0,42.9L949.5,544.1C943.7,549.9,935.9,553.1,927.7,553.1z"/>
		<path class="st0" d="M1040.9,659.3c-17,0-30.9-13.8-30.9-30.8c0-8.2,3.2-16.1,9.1-21.9l211.2-211.1c12.1-12.1,31.6-12.1,43.7,0
			c12.1,12.1,12.1,31.6,0,43.7l0,0l-211.2,211.1C1056.9,656,1049,659.3,1040.9,659.3z"/>
		<path class="st0" d="M932.1,861.3H539.2c-17.1,0-30.9-13.8-30.9-30.9s13.8-30.9,30.9-30.9h392.9c17.1,0,30.9,13.8,30.9,30.9
			S949.2,861.3,932.1,861.3z"/>
		<rect class="st1" width="1559.1" height="1559.1"/>
	</g>
</g>
<g>
	<path class="st2" d="M1472.1,1194.2c0,142.1-115.2,257.2-257.2,257.2c-142,0-257.2-115.1-257.2-257.2
		c0-142,115.2-257.1,257.2-257.1C1356.9,937,1472.1,1052.1,1472.1,1194.2z"/>
</g>
<path class="st3" d="M1170,1306.7c-6.6,0-13.3-2.6-18.3-7.6l-84.2-84.4c-10.1-10.1-10.1-26.5,0-36.6c10.1-10.2,26.6-10,36.6,0
	l65.9,66.1l155.4-154.9c10.1-10.1,26.5-10.1,36.7,0c10.1,10.1,10.1,26.5-0.1,36.6l-173.8,173.2
	C1183.3,1304.2,1176.6,1306.7,1170,1306.7z"/>
</svg>
