<svg xmlns="http://www.w3.org/2000/svg" viewBox="0 0 164 164"><defs><style>.cls-1{fill:#e6334c;}.cls-2,.cls-4{fill:none;}.cls-2{stroke:#e6642f;stroke-miterlimit:10;stroke-width:10px;}.cls-3{fill:#fff;}</style></defs><title>gps_seleccionado</title><g id="Capa_2" data-name="Capa 2"><g id="Capa_6" data-name="Capa 6"><path class="cls-1" d="M84.85,17.3A46,46,0,0,0,39,63.2a44.82,44.82,0,0,0,4,18.74c11.48,25.11,33.48,51.62,40,59.15a2.55,2.55,0,0,0,3.87,0c6.47-7.53,28.47-34,39.95-59.15a44.72,44.72,0,0,0,4-18.74A46,46,0,0,0,84.85,17.3Zm24,55.61H91.91v18.6H79.23V72.91H60.63V59.38h18.6V43.32H91.91V59.38h16.91Z"/><path class="cls-2" d="M84.85,8A55.28,55.28,0,0,0,29.63,63.22a53.92,53.92,0,0,0,4.83,22.55C48.27,116,74.74,147.87,82.53,156.93a3.06,3.06,0,0,0,4.65,0C95,147.87,121.44,116,135.24,85.77a53.8,53.8,0,0,0,4.84-22.55A55.3,55.3,0,0,0,84.85,8Z"/><polygon class="cls-3" points="108.82 72.91 91.91 72.91 91.91 91.51 79.23 91.51 79.23 72.91 60.63 72.91 60.63 59.38 79.23 59.38 79.23 43.32 91.91 43.32 91.91 59.38 108.82 59.38 108.82 72.91"/><rect class="cls-4" width="164" height="164"/></g></g></svg>