<?xml version="1.0" encoding="utf-8"?>
<!-- Generator: Adobe Illustrator 19.1.0, SVG Export Plug-In . SVG Version: 6.00 Build 0)  -->
<svg version="1.1" id="Layer_1" xmlns="http://www.w3.org/2000/svg" xmlns:xlink="http://www.w3.org/1999/xlink" x="0px" y="0px"
	 viewBox="-49 91 350 619" style="enable-background:new -49 91 350 619;" xml:space="preserve">
<style type="text/css">
	.st0{stroke:#000000;}
	.st1{fill:#FFFFFF;stroke:#CCCCCC;stroke-width:0.5;}
	.st3{fill:#333333;}
	.st4{font-family:'Roboto-Medium';}
	.st5{font-size:16px;}
	.st6{font-family:'Roboto-Regular';}
	.st7{fill-rule:evenodd;clip-rule:evenodd;fill:#FFFFFF;stroke:#D3D3D3;stroke-linecap:round;stroke-linejoin:round;}
	.st8{fill-rule:evenodd;clip-rule:evenodd;fill:#F9CCD2;stroke:#D3D3D3;stroke-linecap:round;stroke-linejoin:round;}
	.st9{fill-rule:evenodd;clip-rule:evenodd;fill:#F299A5;stroke:#D3D3D3;stroke-linecap:round;stroke-linejoin:round;}
	.st10{fill-rule:evenodd;clip-rule:evenodd;fill:#EC6679;stroke:#D3D3D3;stroke-linecap:round;stroke-linejoin:round;}
	.st11{fill-rule:evenodd;clip-rule:evenodd;fill:#E6334C;stroke:#D3D3D3;stroke-linecap:round;stroke-linejoin:round;}
</style>
<g id="Layer_2">
	<g>
		<path class="st0" d="M220.2,203.4c-0.3-1.6-2.3-3.1-2.3-4.6c0-2.2-0.4-4.1-2.2-5.4c-0.5-0.4-1.9-1.8-2.6-1.1
			c-0.4,0-0.4,0.7-1.1,0.7c-0.4,0-1-0.1-1.4,0c-0.7,0.1-1.4,1-1.9,0.6c-1.1-0.8-2-0.3-2.4,0.9c-0.4,1.3-0.1,3.5-0.3,4.6
			c-1,0.6-0.1,4.2-0.4,5.3c-0.8,3.6-3.6,6.3-6.4,8c-1.9,1.1-3.1,1.3-4.6,2.9c-1,1.1-0.2,3-1.1,3.8c-2,1.6-2.2-0.7-4.5-0.9
			c-2.5-1.1-3.4,1.8-4.3,3.1c-1.3,1.9-0.9-0.9-2.6-1c-1.7-0.5-2.1,1.2-3.6-0.1c-1.4-1.2-2.4,0.6-3.8,0.6c-1.6,0-4.3-1.2-5.9-1.6
			c-0.9-0.2-1.6-1-2.6-1.2c-1.3-0.4-2.9-0.2-4.3-0.4c-1.8-0.1-5.6,1.3-6.3-0.6c2-0.6,5.7-5.8,6.1-7.8c0.2-1-0.5-1.6-0.4-2.6
			c0.1-0.9,0.6-1.8,1-2.6c0.6-1.6,1.6-2.1,3.1-3.3c0.6-0.6,0.2-1.5,0.8-2.4c0.4-0.6,0.4-1.1,0.8-1.6c0.8-0.6,4.1-4.2,2.5-5.4
			c-0.3-0.8-2.1-3.4-2.9-4c-1.4-1.1-3.5-2.1-5.3-2.6c-0.7-0.4-1.9,0.2-2.4-0.4c-0.6-0.9-1-1.2-2-1.6c-1.9-0.6-3.2-0.4-4.9-1.6
			c-1.6-1.2-3.4-2.1-5.1-3c-1.4-0.7-2.4-2.3-3.7-3.1c-1.6-1-4-3.5-5.8-3.9c-0.6-0.4-1.7,0.4-2.4,0.4c-1.4-0.1-2.5-0.6-3.8-1
			c-0.7-0.2-1-1-1.7-1.1c-1-0.2-2.2-0.2-3.1-0.6c-2.1-0.8-2.1-2.8-4-4.1c-1-0.7-1.9-1.2-3-1.7s-1.5-1.8-2.8-2
			c-0.9-0.1-4.2-3.7-4.5-4.6c-0.4-1.1-1.5-1.6-1.9-2.6c-0.4-1.1-0.7-2.8-1.7-3.5c-2-1.3-3.6-2.9-5.5-4.3c-1.7-1.2-0.5-2.9-3.1-2.9
			c-3.9,0-7.7,0-11.6,0.1c-3.1,0-3.2,2.4-4.4,5.1c-0.8,1.9-2.4,2.9-2.5,5.1c-0.6-0.6-1.6-3.4-1.8-4.4c-0.3-2.4-1-2.7-3.1-3.4
			c-4.4-1.4-8.1-1.1-12.8-1c-1.5-0.1-6.8-7.6-7.8-3.6c-0.7,2.7-0.4,3.4-3.1,4.2c-2.6,0.8-3.3,0.6-3.8,3.6c-0.1,0.6-2.1,1.1-2.7,1.4
			c-1.2,0.5-0.1,1.6-0.9,2.2c-2.4,2-1.7,3.1,0.2,5.2c0.6,0.6-2.9,9.9-3.3,11.2c-0.7,2.6-0.7,2.6-3.1,3.6c-2.8,1.2-5.6,2.5-8.3,3.7
			c-2,0.9-4.9,3.8-5.3,6.1c-0.6,1.4,1.8,3.8,2.4,4.9c-3.6,0.1-2.7,6.5-1.9,8.5c0.9,1.9,1.1,4.1,1.4,6.2c0.1,0.6-1.6,1.4-1.9,1.9
			c-0.5,0.5-0.4,1.9-0.4,2.5c-0.1,3.6,6.7,6.9,1.3,8.8c-1.3,0.4-2.4-0.4-3.7,0.3c-1.6,0.4-1.2,3.1-1.8,4.1c-1,1.7-2,3.3-2.6,5.2
			c-0.2,0.7-0.3,1.9-0.6,2.6c-0.5,0.9-1.6,0.7-1.9,1.6c-0.7,1.9-1.9,3.4-3.6,4.7c-1,0.8-1.1,1.3-1.1,2.5c-0.1,1-0.8,1.3-1,2.3
			c-0.7,1.4,0.2,3.5-0.6,5.2c-0.4,1.5-1.7,2.1-2.9,3.6c-1,1.4,0.4,3.3,0.6,4.6c0.4,1.6,0.9,3.8,0.6,5.5c-0.4,1.9,1.4,2.7,0.6,4.6
			c-0.9,1.9-2.6,1.1-3.4,2.6c-1.3,1.4-3.7,7-2.3,8.7c0.4,0.4-2.6,1.3-2.8,2.3c-0.7,1.3-1,4.9-0.9,6.1c-0.1,1.3,1.3,4,2.1,4.9
			c0.7,0.8,1.6,0.3,2.2,0.9c0.8,0.8-0.8,1.1-1.1,1.6c-1.4,1.6,1.1,4,1.6,5.1c0.9,2,0,3.9,0.9,5.8c0.4,2.6,2.6,1.1,0.9,3.8
			c-0.6,1,0,5.1,1.7,5.1c0.5,0,3.1-1.6,2.1,0.8c-0.8,1.7-1.9,4-1.5,6c0.1,2.1,0.7,4.4,1.1,6.6c0.1,0.6-1.1,0.3-1.4,0.3
			c-1.4,0-1.5,1-1.5,2.1c0,1.4-1.9,3.1-2.4,4.5c-0.7,1.6-1.6,4-1.7,5.8c0,1.4,0.1,1.4-0.7,2.1c-0.5,0.4-2.3,0.1-1.9,1.5
			c-0.1,1.1,0.9,1.6,1.6,2.1c0.7,0.4,0.5,2.4,0.4,3.1c-0.1,1.1,0,1.5,0.4,2.6c0.4,1.3-0.3,0.8-0.4,2c-0.8,1.6,1.4,3.9-1.3,3.9
			c-1.4,0-3.2,2.4-2.7,3.9c-0.7,1.3-2.7,0.5-3.8,1.4c-1.2,0.7-1.8,4.8-2.3,6.1c-0.6,1.6,1.1,3.7,0.6,5.5c-0.4,1.4-1.3,2.2-0.4,3.9
			c0.2,1.1,0.8,1.3,0.5,2.7c-0.1,0.8-1.1,1.2-0.7,2.3c0.1,1.9,1.5,4.1,2.2,5.9c0.7,1.6-0.4,4,0.4,5.9c0.2,1.4,2.1,1.5,1.7,3
			c-0.5,1.9-3.2,2.2-4.9,3.2c-4.3,2.5-1.1,5.1-2.5,8.9c-0.3,0.9-0.9,5-1.8,3.7c-1.6-2.3-2.2,2.1-1.9,3.1c0.6,2.4,1.5,3.9-0.6,5.4
			c-1.4,1-0.9,4.2,1,4.6c0,0.4-2.1,1.6-2.1,3.1c-0.7,2.1-1.6,3.2-0.6,5.5c1.3,3.2-0.1,6.9,0.3,10.3c0.2,1.6-1.1,2.6-0.4,4.2
			s1.1,4.5,1.9,5.8c0.4,0.6,0.1,1-0.5,1.2c-1.4,0.7-0.4-0.1-1.7-0.3c-1.3-0.3-3.4,3-2.7,3.9c0,1.4,1,0.8,0.4,2.6
			c-0.3,0.8-0.8,1.8-0.6,2.7c0.4,2.3,0.4,4.2,0.1,6.6c-0.2,1.4,1,2.6,2.1,3.1c0.8,0.4,1.8,0,2.6,0.5c1.8,1.1-0.9,1.4-1.1,1.8
			c-2,0.5-0.8,3.6,0.1,4.3c0.6,0.5,1.9,1.2,2,2c0.1,0.9-1.4,0.7-1.4,1.9c0,1,1,1.9,1.6,2.6c0.8,1,0,1.4-0.6,2.4
			c-0.4,0.6-0.9,1.4-1,2.1c-0.3,0.8,0.9,2.4,0.1,3c-1.4,1,0.1,2.4,1.3,2.4c2.1,0,4.1-0.2,6.1,0.1c2.5,0.5,0.9,1.5,0.4,2.5
			c-0.8,1.9,0.1,3.8-2.5,2.2c-0.8-0.5-1.6,0.1-2.4,0.4c-0.7,0.2-1.6-0.7-2.2-0.2c-0.9,0-1.4,0.5-2.6,0c-0.8-0.4-1.7,0.1-1.6,1.1
			c0.1,3.3,1.1,2.9,4.2,3.4c2.3,0.4,2.3,0.9,3.5,2.5c1.7,2.2,2.7,2.8,1.1,5.1c-1.2,1.7-3.1,1.2-4.4,2.6c-1.4,1-0.6,4.5-0.4,5.9
			c0.2,1,1.4,0.7,1.7,1.4c0.4,1-0.5,1.6-1.1,2.4c-0.7,1-4.3,2.2-1.2,3.5c0.5,0.9,0.7,0.2,0.9,1.7c0.1,1.1,0.1,2.1,0.5,3.1
			c0.6,1.9,0.6,3.6-1.1,4.8c-0.6,0.4-1.3,0.1-1.8,0.7c-0.7,0.7-0.5,2.9-0.6,3.9c-0.2,1.6,2,2.5,1.4,3.9c-0.2,0.6-1.7,0.7-2.1,1.4
			c-0.4,0.6-0.9,2.1-1.9,1.9s-3.6,1.4-2.2,2.5c-0.2,1.5-0.9,2.9-1.5,4.6c-0.8,1.9-1.6,3.6,0.1,5.1c1.5,1.4,1.9,2,1.9,4.3
			c0.1,2.9-1.5,1.8-3.1,3.5c-1.3,1.4-0.4,2.9-0.3,4.7c0.2,2.4-0.3,2.9-2.1,4.5c-1.1,1.1-2.7,0.4-3.7,1.9c-0.9,1.3-2.9,4-2,5.5
			c-2.7,0.1-3.6-0.2-4.5,2.5c-1,2.9-0.2,3.6,0.4,6.4c0.4,1.6-0.1,0.9-0.5,2.2c-0.4,0.4-0.7,2.2-0.3,2.7c0.1,1.3,1.3,0.4,0.4,1.9
			c-0.4,0.6-0.5,1.4-0.2,2.1c0.6,1.7,2.9,1.9,3.2,4.1c0.2,2.1,0.4,4.3,0.9,6.4c0.3,1.3,0.7,3.1,2.5,2.5c1.6-0.5,2.3-2.9,4-2.9
			c0.4,0,0.9,1,1.5,1c1,0,1.1-1.1,1.7-1.3c2.5-0.6,1.3,1.1,1.5,2.4c0.2,1.8,1.9,2.6,0.9,4.9c-0.5,1.3-2.6,1.9-1.1,3.9
			c0.3,0.4,1.1,0.6,1.2,1.1c0.1,0.2-0.6,1.8-0.6,2.3c0,0.9,0,2-0.6,2.6c-1,0.9,0.1,2.6,0.5,3.6c0.7,1.9,2.8,2.6,4.2,4
			c0.9,1,0.5,3.9,2.1,3.9c5.1,0,10.3,0,15.5,0c4.1,0,7.7-0.5,11.5,1.2c4.1,1.9,8.3,1.8,12,4.5c1.4,1,3.5,0.4,5,1.1
			c0.3,0.1-0.1,1.6,1.1,1.1c0.9-0.4,1.1-1.6,0.9-2.4c-1.2-3.5-4.1-6.1-5.6-9.6c-0.6-1.6-1.2-3.4-2.2-4.8c1.4-0.7,0.1-3.4-0.2-4.4
			c-0.6-2.1-1.5-4.2-1.6-6.4c-0.1-0.9-0.3-1.5-0.6-2.4c-0.3-0.8,0.6-1.4,0.6-2.4c0-3.4,0.7-8.7,4.1-10.5c1.4-0.7,2.6-1.3,4-1.8
			c1.2-0.4,1.5-1.5,2.6-1.7c2.6-1.4,4.6-2.1,6.5-4.4c1.6-1.9,1.2-5.9,1.6-8.1c0.3-1.6,0.7-3.4,1.1-5c0.1-0.5-0.4-0.8-0.4-1.1
			c0,0,0.4-1.4,0.2-1.6c-0.6-2.1,3.4-4.4,4.5-5.6c1.1-0.5,1.3-2.6,2-3.4c0.9-1.1,2.9-0.8,3.6-1.7c1.3-0.9,1.9-2.1,3.2-2.9
			c1.4-0.9,1.9-1.2,3.1-2.6c1-1.1,2.1-2.4,3.3-3.4c1.1-0.9,2.4-0.6,1.8-2.8c1.2,0.9,2.9-0.1,2-1.6c-1.6-2.4-0.9-2.4,0.1-5.1
			c1.4-3.5,1.1-7.6-1.3-10.4c-1.3-1.5-2.1-0.7-3.6-0.6c-1.9,0.1-3.3-0.9-5.1-0.9c-4.3,0-5.6-4-8.7-6.5c-2.9-2.4-5.1-6.1-5-9.9
			c0.1-2.1,1.1-3.6,2.4-5.1c1-1.3,0.6-3.4,1.8-4.5c1.7-1.4,2.4-3.2,3.5-5.1c1-1.8,2.6-1.1,4.2-1.9c1.9-0.9,2.6-2.3,4.5-3.3
			c1.9-0.9,3.6-1.1,5.7-0.4c1.2,0.4,3.1,1.9,3.9-0.1c0.2-0.6,1.5-2.5,0.5-3c-0.5-0.7-1.8-0.4-1.9-1.4c-0.4-1.8,2.7-3.3,3.8-4
			c0.7-0.5,2.5-4.1,2.2-4.9c-0.9-2.6,0.3-2.1,0.5-4.5c0.1-1.9-1.1-2.9-1.4-4.9c-0.3-2.1,1-3.3,2.2-4.8c1.1-1.5,1.4-3.1,2.9-4.3
			c1.5-1.2,3-1.3,4.6-2.1c0.8-0.4,1.6-0.7,2.4-1.3c0.6-0.4,2.1-2.7,0.1-2.7c-2.2,0-3.3-0.1-5.3-1.4c-1.2-0.9-3.9-0.6-2.4-2.5
			c0.4-0.4,1.4-0.3,1.9-0.7c0.7-0.5,0.9-1,1.8-1.4c1.1-0.5,5.3-0.1,4.6,1.9c-0.6,1.6-0.3,3.1,1.4,4.1c1.6,0.9,4.1-0.4,5.8-0.7
			c2.9-0.6,2.4-5.4,2.4-7.6c0-1.7-1.1-6.9-3.4-6.6c-1.9,0.3-3.2,1.5-5,2.1c-1.1,0.4-3.9,0.6-1.9,2.2c0.5,0.3,4.2-0.4,2.6,1.4
			c-0.8,0.9-4.1,0.6-5.3,0.4c0.6-1.3,2.6-4-0.6-3.3c-1.4,0.3-4.3-1.1-4.9-2.4c-1.1-2.1-0.6-2.6,0.1-4.9c0.3-0.8-0.4-1.4-0.3-2.1
			c0.1-0.9,0.6-2.2,0.3-3.1c-0.9-2.4-3.9-8.3-1.6-10.9c0.5-0.6,1.2-1.7,2.1-1.8c1.6-0.1,0.9,1,1.7,1.6c0.6,1.4,4.7,1.9,6.1,2.6
			c3.4,1.8,6.1,3.5,10,3.4c4.2-0.1,7.6-0.1,11.2-2.3c1.3-0.8,4.7-1.9,5.2-3.4c0.2-0.6,2.4-4.8,0.9-4.8c-0.9-1.6-2.3-2.4-2.9-4.4
			c-0.2-0.6,1.9-2.4,1.8-3.6c0-0.8-0.2-2.7,0.4-3.3c0.5-0.5,1.4,0,2.1-0.6c1.1-0.6,1.3-6.1,0.5-7c3.1-0.1-0.9-3.4-2.1-3.6
			c-1.3-0.3-1.1-1.6-0.7-2.7c0.6-1.7,0.6-2.4-0.7-3.9c2,0.2,2.1,1.9,3.7,2.4c1.7,0.9,4.3,0.9,6.1,1.1c1.2,0.1,2.6-0.4,3.9-0.3
			c1.9,0.1,3.9,0,5.8-0.4c4.4-0.8,8.8-1.4,13.2-2.2c1.6-0.1,3.2-1,4.9-1.4c2.2-0.5,4.4-0.8,6.5-1.7c3.7-1.6,7.6-2.4,11.2-4.4
			c1.9-1.1,8.3-3.8,7.3-6.8c0.7-3.8,3.5-5.5,5.6-8.7c1.3-1.7,2.1-3.8,3.2-5.6c0.8-1.4,2.4-2.6,2.4-4.3c-0.1-1.9,0.6-8.3-1.6-9.5
			c-1.5-0.8-2.2,1.4-3.9-0.1s-2.7-2.6-3.6-4.7c-1.4-3.5,4.4-6.4,3.1-9c-0.4-2.7-3.9-5.4-5.9-6.8c-2.8-1.9-6.8-3.1-9.3-5.2
			c-2.4-2.1-2.9-3.6-1.2-6.4c1.4-2.4-1.4-5.6-1.9-7.8c-0.7-3.1,1.6-6.2,1.6-9.3c4.4,0.2,3.6-2.3,3.1-5.8c-0.2-1.3-0.9-3.3-0.2-4.5
			c0.6-1.1,1.4-1.8,1.3-3.1c-0.1-0.6-0.8-0.8-0.9-1.2c-0.1-0.5,0.3-0.9,0.2-1.4c0.3-1.1-0.6-2.3-0.4-3c0.1-0.2,1.2-0.4,1.5-0.7
			c0.4-0.5,0.5-1.1,0.6-1.7c0.4-1.3,0.8-2.8-0.6-3.7c2.1-1.5,2.6-5.9,3.2-8.2c0.7-2.6-2-4.9,0-6.6c0.5-0.4,1.4-0.9,1.7-1.5
			c0.4-0.6,0.3-1.6,0.6-2c0.5-0.6,1.6-1.1,2.2-1.8c0.4-0.5,1.7-1.4,1.7-2.1c0.3-0.6-0.1-1.5,0.4-2.1c0.6-0.7,2-0.4,2.9-1.3
			c2-2.1,3.9-4.4,5.4-6.9c1.1-2.6,4.1-3.1,4.6-6.5c1.4-1.8,3.2-3.4,4.6-5.6c1.1-1.8,1.4,0.1,2.6-0.1c1.4-0.2,1.1-2.6,0.1-3.1
			c1.3-1.2,3.1-1.4,4.4-2.7c0.7-0.7,0.4-1.3,1.5-1.9c0.9-0.4,2.5-0.3,3.1-0.9c2.1-1.2,1.2-3.5,3.6-3.8c1.4-0.1,3.7-1.1,5-1.6
			c1.1-0.5,3.1-1.9,3.7-2.9c1.1-0.8,0.9-1.1,2.4-1.1c0.7,0,1.1-1.1,1.3-1.6c0.4-0.9,1.4-2.4,1.2-3.4c0.1-1.1-0.5-2.3-0.4-3.5
			c0.1-1.1,0.2-2.1,0.2-3.4C219.4,205,220.4,204.3,220.2,203.4z"/>
		<path class="st0" d="M71.3,696.2c-2.1-1.2-5.2-0.1-7.4,0.3c-1.8,0.3-5.5-2-6.8-2.9c-1.2-0.9-2.6-1.6-3.7-2.6
			c-0.9-0.9-1.4-2.4-2.4-3.1c-2.4-1.4-4.9-2.8-7-4.6c-1.1-1-2.4-2-3.5-3.1c-0.7-0.6-0.4-2-1.4-2.9c-1.9-1.9-4.4-3.6-5-6.3
			c-0.3-1.5-0.6-2.6-1.3-4c-0.7-1.4-1.6-0.5-2.8-0.6c-4-0.2-1.8-3.3-0.3-5.1c0.2,0.8,0.3,2.5,1.4,2.6c0.9,0.1,0.8-0.9,0.7-1.4
			c-0.3-1.6-0.5-3.5-1.6-4.9c-1.4-1.5-4.8-8.1-4.8-3.4c-0.1,11.2-0.1,22.3-0.1,33.5c0,3.9-0.1,7.8-0.1,11.6c0,0.8-0.6,3.1,0.5,3.2
			c0.4,0.2,4.4-1,4.6-1.2c3-0.4,6.7,1.3,10.1,1c2-0.1,4.1,0.4,6.1,0.6c2.3,0.3,2.9,1.6,4.7,2.6c0.6,0.6,2.1,0.6,2.9,0.6
			c0.9,0,0.7-1.2,1.3-1.4c0.6-0.3,1.6,0.1,2.2,0c1.2-0.1,4.6-3.2,5.4-1.9c0.7,1.1,2.4,0.5,3.3,0.1c0.8-0.4,1.1,0.6,2,0.4
			C69.6,703.4,72.7,696.7,71.3,696.2z"/>
		<path class="st0" d="M166.6,622.1c0.1-0.5-0.2-1.1-0.6-1.3c1.6-0.7-0.4-3.7-1.1-4.3c-0.7-0.6-2.2-0.1-3.1,0
			c-2,0.1-1.4-0.2-3.1-1.2c-1.5-0.9-1.9,0.1-3.2,0.1c-0.7-0.1-1.4-0.6-2.1-0.9c-0.5-0.1-0.9-1.2-1.6-0.5c-0.7,0.7,0.4,1.7,0.7,2.3
			c-0.6,0-2.3,0.5-2.6,0.9c-0.5-1.1-3.7-3.1-4.7-3.4c-0.8-0.2-3.9-0.7-3.5,0.9c-1.1-0.7-2.6-0.1-3.9-0.1c-1.5-2.9-1.6,2-1.7,2.3
			c-2.2-1.6-0.2-0.3-1.5-2.3c-0.9-1.4-2.7-0.5-1.7,0.9c-3,1.4,2.7,5.1,3.6,6c0,0-2.6,0.2-2.8,0.3c-1.7-0.9-2.2,1.6-0.9,2.4
			c0.1,0.1,1.4,1.3,1.4,1.1c0.1,1.6-0.7,0.6-1.5,1.2c-3.2,2.4-1.1-3.3-2.6-3.3c-1,0-4.1,2.2-4.1,0.3c1.2,0.1,0.9-1.2,0.1-1.6
			c-1.4-0.6-2.7,1.6-1.4,2.5c-1.6,0.5,0.2,2.2,1.2,2.2c0.9,0,1.1,1.2,2,1.5c-2.8,1.1,3.6,4.5,3.8,4.7c1.1,2,5.3-1.1,5.8-2.5
			c0.7-2,0.7-0.4,2.1-1.4c1.1,1.1,3-2.1,3.4-2.6c2.1-3.2,4.6-4.7,6.5-7.8c0.4,1.4-1.3,2.2,0.6,3.4c-1.5,0.4-4.8,2.8-5.1,4.1
			c-0.6,0-2.2,0.9-2.2,1.6c-0.1,1,0.7,1.1,1.2,1.8c-0.4,0.3-1.9,0.6-2.1,1.4c-0.1,1.1,0.6,2.2,0.4,3.4c-0.6,1.1-0.4,2.6,1.4,2.6
			c2.1,0,0.4-3,0.8-3.6c0.4,0.5,3,2.7,3.7,2.4c1.2-0.6-0.4-3.1-0.5-3.7c0.7,0.4,1.6,0.9,2.2,1.4c2.6,1.7,1.7-2.2,1.6-2.9
			c1.4,1.5,1.2,0.1,2.6-0.4c0.6,0.3,2.9,2.9,2.4-0.4c1.4,2.2,2.2,1.3,2.7-0.6c0.4-1.1-0.5-1.4-1.4-1.4c-1.9,0,0,0.6-1.6-0.4
			c0.9-0.2,1.3,0,2.2,0c1.3,0,2.4-1.6,3.4-1.9C161.9,625.3,168.7,623.1,166.6,622.1C166.7,622,166.9,622.3,166.6,622.1z
			 M137.4,618.1c0.4-0.2,0.8-0.1,1.1,0.1C138.5,618.5,137.6,618.3,137.4,618.1L137.4,618.1z M142.2,615.8
			C142.2,616,141.7,615.5,142.2,615.8L142.2,615.8z M129.6,628.3c0-0.1,0.3,0,0.4,0.2C129.7,628.5,128.7,628.5,129.6,628.3z"/>
	</g>
</g>
<g id="Layer_1_1_" xmlns:amcharts="http://amcharts.com/ammap">
	<defs>
		
		
			<amcharts:ammap  leftLongitude="-73.584888" rightLongitude="-53.646671" bottomLatitude="-55.053654" projection="mercator" topLatitude="-21.777295">
			</amcharts:ammap>
	</defs>
	<path id="Buenos_Aires" class="st1" d="M157.2,327.3l-0.4,0.1l-0.4,0.9v0.7l0.9,0.5l1.6-0.9l0,0l1.5,1.3l4.9,2.1l4.6,3.1l2.1,1.7
		l1.9,2.6l0.9,1.6l-0.1,0.7l-3.2,4.9l-0.1,0.8l0.1,2.1l0.9,2.1l0.9,1.4l2.4,2.1l1.6,0.9l2.1-1l0.4,0.1l0.6,1.5l0.4,2.8l0.1,4.7
		l-0.2,0.8l-1.9,2.6l-3.4,6l-1.5,1.9l-1.9,1.9l-2,2.6l-0.6,1.8l-0.1,0.9l0.2,0.6l-0.1,1l-0.2,0.4l-1.2,1.1l-2.5,1.8l-4.6,2.5
		l-1.4,0.6l-6,1.9l-3.4,1.5l-6,1.3l-3.8,1.1l-1.6,0.1l-11.8,2.1l-3.5,0.4l-2.8-0.1l-1-0.2l-1.9,0.6l-3.6-0.4l-2.6-0.7l-0.9-0.4
		l-0.3-0.9l-1.2-0.8l-1.9-0.4l-0.4,0.2l-0.1,0.3l0.4,1l1.1,1.2l-0.8,2.1l-0.1,1.5l0.3,1.5l2.1,0.4l1.2,0.7l0.6,0.6v0.4l-0.4,0.4
		l-1-0.7l-0.7-1l-0.9,0.1l-0.2,0.4l1.6,1.6l1,1.3l-0.6,5.5l-0.7,0.4l-1.1-0.3l-0.6,0.8l-0.4,2.1l0.1,1.9l-0.2,0.9l-0.2,0.5l-0.7,0.4
		l-0.9,1.1l0.9,2.6l1.6,1.7h0.4l0.3,0.7l-0.2,0.5H108l-0.4-0.4v1.1l0.1,0.1l0.9-0.6l0.9-0.3l-0.1,0.4L109,427l-1.3,3.4l-5.3,3.1
		h-0.6l0,0l-1.7-2.8l-1.3-1.3l-1.5-1l-3.4-0.6l-0.1-23.3l0,0l0.1-69.8l0,0v-9.8l6.8,0.1l0,0l14.8-0.1l10.1-11.4l-0.1-0.5l0.2-0.6
		l0.9-0.3l2.3,0.4l1.4,1l1.1-0.2l0.7-1.4l0.1-1.1l1.7-2.4l0.1-0.6l-0.3-0.4l0,0l0,0l0,0l0.9,0.6l1.9,2l2.9,1.7l0.8,0.9l0.9,0.6
		l1.6,0.8l1.1-0.5l1.4,1.4l2.3,0.9l1.7,0.5l0.9,0.1l3.9,2.5l1,0.9l0.8,0.1l1-0.6l0.9-0.1l0,0l0.6,0.4l0.1,0.3l0.1,2.1l-0.7,1.2
		l-0.6,0.3l-0.3,0.7L157.2,327.3z"/>
	<path id="Catamarca" class="st1" d="M70.7,227.6l1.1,5.2l0.1,2.1l-0.1,1.1l-1.3,1.7v0.8l0.7,0.3l0.3,0.4l0.1,0.6l0.2,4.6l0.4,3.5
		l0.6,1.4l1.4,2.6l0,0l-1.1,0.3l0.5,4.2l-2.6,2.9l0,0l-7.1-8.5l-1-1.4l-0.1-1.4l-0.6-1.1l-4-3.7l-3.1-1.6l-0.3-0.6l-0.1-1.7
		l-1.4-3.1l-0.6-0.7l-5.5-2.4l-0.6-0.1l-0.4,0.1l-0.7,0.9l-0.9,0.1l-2.4-0.3l-0.4-0.6l-1.3-0.9h-0.4l-1.4,2l-0.7,0.1l-1.3-0.3
		l-0.6-0.3l-0.6-0.8l-0.4-0.6l-0.2-1.3l-1.1-0.4l-1.6-0.2l-2.9-1.5h-0.6l-0.4-0.4v-2.2l0.2-0.9v-0.4l-0.2-0.2l-2.6,0.1l-2.9,0.6
		l-3.2-0.3l0,0l0.6-2.1l2.2-3.9l0.4-1.2l-0.1-0.6l0.1-0.4l0.8-1.3l0.9-0.2l0.6,0.1l0.6,0.4l3.1-1.1l1.1-0.6l0.4-1.6l-1.9-3.1
		l-1.4-1.6l-0.6-1.1v-1.8l0.2-1.1l2.1-2.1l-1.2-5.8l-0.8-1.8l-0.6-2.1l0.4-1.8l0.8-2.1l0.4-0.5l0,0l8.8,1.7l16-0.2l0.4,0.4l0.9,2.7
		l-0.4,1.9l-1.1,0.9l-2.1,0.1l-0.8,0.6l-0.1,1.2l0.2,1l2.3,3.1l1.4,2.8l1.2,1.2l0.6,0.1l0.2-0.2l0.7-1.9l0.4-0.1h1.5l0,0l-0.1,0.6
		l-0.7,1.7l0.1,2.1l2.5,0.7l2,1.5l0.2,0.6l-0.4,2.8l-3.4,4.2l-0.6,1.4l1.2,0.4l1.4,1.2l0.7,3.4l1.2,2.1l0.4,0.1l0.5-0.3l0.9,0.5
		l0.4,1.9l1.3,1.5l0.8-1.2l2.1-1.6l1.4,0.9L70.7,227.6z"/>
	<path id="Chaco" class="st1" d="M152.2,228.9h-36.9l0,0l-0.1-33.7H93.5l0,0l13.8-18l-0.1-3.9l0,0l4.5,2.1l1.1,0.8l1.1,0.3l1.5,1
		l0.6,1.1l1.3,0.6l1.3,1.3l2.8,0.5l0.4,0.2l0.8,1.1l0.6,1.3l0.7,0.8l3.1,2.5l3.9,1.9l1.4,2l2.1,2.1l0.2,1.3l0.6,1.1l2,0.9l2.1,1.3
		l2.1,2.8l0.4,1.6l3.1,0.6l0.5,1.9l0.5,0.4l1,0.1l0.9-0.3l3.1,0.9l1.4,1.6l2.6,2l2.6,2.8l1.4,0.8l0,0l-0.6,0.4l-1,1.1l-1.4,1.9
		l-0.6,0.1l-0.3,0.4v0.5l0.7,0.8l-0.1,1l0,0l-1.8,1l-1.4,1.3l0.4,3.8L152.2,228.9z"/>
	<path id="Chubut" class="st1" d="M-13,521.4l0.5-0.4l-0.3-1.4l-0.3-0.4l-1.4-0.6l-0.5-2.2l0.6-3.1l0.5-0.4l1.4-0.3l1.8-0.9l2.1-3.1
		l-0.4-1.4l-2.2-2.9l-0.6-1.4l-0.4-0.4l-2.1-0.7l-4.2-0.6l-0.1-2.4l0.4-0.2l1.2,0.5l1.4,0.1l0.9-0.6l1.5,0.5l2.1-0.7l1.6,0.9h1.2
		l0.6-0.9l-0.1-1.5l0.6-1.3l0.6-0.1l0.3-0.3l0.1-0.6l-0.7-1.5l-0.4-0.4l-2.6-0.6l-1.9,0.1h-3l-0.6-0.1l-0.4-0.5l0.1-0.4l0.6-0.4
		l0.1-2l-0.3-0.9l0.5-1.4l1.7-2.6v-0.4l-2.1-2.7v-0.5l1.4-0.8l0.1-0.4l-0.1-1.1l-3-2.6l0.1-1.1l0.4-1.1l2-0.5v-2.1l-1.2-0.8
		l-2.1-0.2l-0.7-0.3l-0.4-0.3l-0.8-1.5l0.4-2.6l-0.1-2.4l-0.4-2.3l1.2-3.9l-1.1-1.4l1.4-2.6l0.3-0.1l0.4,0.1l0.3,0.7l0.4,0.1
		l1.7-0.8l0.6-0.6l-0.1-1.1l-0.4-0.5l0,0h85.6l0.9,0.2l0,0l0.9,1.8l1.5,1.4l3.6,1.1l0.9-0.2l0.9,0.4l-0.9,1l-0.9,1.5l0.1,0.5
		l1.9,0.2l4.4-0.3l0.9-0.9v-1.1l-0.2-0.6l-0.6-0.4h-2.6l-0.4-0.3l0.4-0.3l1.7-0.4l1.9-0.8l1.9-1.1l1.6-0.2l0.2,0.2l0.8,2.1l0.7,1
		l0.4,1l0.1,4.9l-0.6,2.6l-0.7,0.9l-0.4,0.1l-4.9,1.1l-0.5-0.3l-1.4-1.7l-0.1-0.4l0.6-1.9l-1.8-1.9l-1.6-0.6l-2.1,0.2l-1.5,0.7
		l-0.6,0.8l-0.6,0.4l-1.4,0.4l-0.4,0.2l-0.9,1.4l0.1,0.6l0.3,0.3l2.4,0.9l2.3,1.6l2.8,0.8l1.2-0.4l0.4,0.7l-1.2,0.9l-2.6,1.3
		l-1.4,0.3l-1.2,0.5l-1.7,1.4l-1.4,1.4l-1.3,2.6l-1.6,2l-0.9,1.6l-0.1,1l0.3,2l0.4,0.9l0.4,1.6l0.6-0.2l-0.2,2.7l-0.9,0.4l-0.2,1
		l0.8,2.3l-1.1,2.1l-0.6,1.7l-2.7,1.7l-0.6,0.6l-0.6,1.1l-0.4,1.1l0.1,1l2.3,1.1l-0.9,2.4l-1,0.4l-0.8-0.6l-1.2-0.4l-3.5-0.4
		l-0.9,0.1l-4.4,2.2l-0.6,1.4l-1.6,0.7l-2.1,0.3l-1.2,0.8l-0.6,0.5l-2.5,4.5l-1.5,1.3l-0.3,0.4l-0.8,3.2l-2,2.5l-0.6,1.4l0,0
		L-13,521.4z"/>
	<path id="Ciudad_Autónoma_De_Buenos_Aires" class="st1" d="M185.6,322.9l-15.5,8.6l-8.8-5.2v-7.1l4.2-9.3l3.9-1.7l0,0l5.5,5.1
		l7.6,2.2L185.6,322.9z"/>
	<path id="Córdoba" class="st1" d="M71.7,334.6V319l-0.6-12.3l1.6-3.1l1.6-5.8l0.1-1l-0.5-3.6l-0.4-0.4l-1.5,0.4l-1.8,0.1l-0.7-3.2
		l-0.8-0.9l-4.2-2.6l-1.6-0.1l0,0l-0.1-12.4l3.1-9.9l0.4-0.6l1.1-3.3l3.3-0.9l0.2-0.3l0,0l2.6-2.9L73,252l1.1-0.3l0,0l7.9-2l2.9,0.9
		v0.5l0.5,0.7l2.4,1.3l1.2,0.1l1.6-0.2l1.3,0.3l0.6,0.3l0.6,0.6l0.3,0.8l2.5,0.1l12.1-0.2l2.2,5.8l0,0l-0.7,4.4h-0.6l-0.1,1.6
		l2.4,1.6l2.1,0.8l-3.7,13.8l-1.4,1.2l0.4,2.9l-0.1,3.3l1,1.1l0.9,0.6l0.4,1.6l1.6,1.5l1,3.2l1.2,1.9l0.1,0.6l-0.4,2.3l-0.6,1.1
		l-0.6,0.4h-0.5l-0.5,0.8l-11.8,19.3l0,0l-6.8-0.1v9.8l0,0L71.7,334.6L71.7,334.6z"/>
	<path id="Corrientes" class="st1" d="M141.9,263.3l-0.2-1l1.3-3.7l-0.1-0.6l-0.9-1.3l-0.2-0.6l0.9-3.3l0.1-3.1l1.2-2.8l1.6-0.7
		l2.2-2.3l1.5-5.9l0.4-3l-0.1-3.6l0.4-0.6l0.5-0.2l0.7,0.1l0.6-0.4l0.4-1.4l0,0l0.5-3.9l-0.4-3.8l1.4-1.3l1.8-1l0,0l1.3-0.4l4.5-0.3
		l4.7,0.4l0.8,0.2l1.4,0.9l2.6,0.6l1.5,0.2l1.1,0.6l1.1,0.3h0.6l2.1-1.1h0.4l1.1,1l0.8,0.2l0.8-0.6l0.9-0.2l0.7,0.1l0.6,0.4l0.6,1.1
		l0.5,0.4l0.7,0.1l1.1-1.7l0.1-1.1l1.6-1.1l1.4-0.1l0.9,0.4l0,0l-0.4,0.3l-0.3,1.3l0.1,0.6l1,1.7l0.9,2.1l0.4,2.6l1.1,1.9l1.6,1.3
		l0,0l-0.6,0.8l-0.9,0.4l-0.3,0.3v0.3l1.1,0.6l0.1,0.5l-0.4,1.1l-0.4-0.6l-1.3-0.1l-0.8,0.2l-1.1,1.7l-0.4,1.1l-0.7,0.9l-1.4,1.5
		l-1.4,0.7l-0.3,0.3l-0.1,0.5l-1.6,3.5l-1.1,0.4l-1,0.7l-0.6,0.9l-0.1,0.9l-0.5,1.1l-4.5,5.4l-0.8,0.9l-0.5,0.2l-1.1,0.1l-0.7,0.4
		l-0.5,1.1l-0.1,1.5l-2.1,2.3l-0.9,0.6l-0.7,0.2l-0.3,0.8v0.9l-0.5,0.9l-2.8,2.4l-0.1,1.2l0.6,0.6l0.5,1.6l0,0l-0.8-0.6l-1.6-1.7
		l-1.6-3.1l-1.4-2.1l-0.8-0.4l-3.6-1l-1.4,0.1l-1.3,0.7l-1.1,0.3l-2-0.4l-1.3,0.9l-0.3,0.5l-1.1,0.6l-2.1-0.5l-1.5,0.1l-0.8,0.4
		L141.9,263.3z"/>
	<path id="Entre_Ríos" class="st1" d="M133.7,307.5l-0.7-1l-2.4-1.3l-2-3.9l-0.2-0.9l-0.4-2.9l-0.1-1.9l0.9-2.6l-0.4-2.5l0.8-6.3
		l0.3-0.3l0.5-0.1l2-0.2l1.1-1l2.6-3l1.4-2.9l0.6-0.4l3.2-4.9l2-3.5l0.1-0.8l-0.1-2.4l-0.9-1.4l0,0l1-0.1l0.8-0.4l1.5-0.1l2.1,0.5
		l1.1-0.6l0.3-0.5l1.3-0.9l2,0.4l1.1-0.3l1.3-0.7l1.4-0.1l3.6,1l0.8,0.4l1.4,2.1l1.6,3.1l1.6,1.7l0.8,0.6l0,0l0.1,2l-1.6,5.8
		l-1.1,2.2l-0.8,0.5l-0.1,0.4l1.1,1.1l0.1,1.1l-0.8,2.6l-0.3,0.4l-1.3,0.4l-0.5,0.8l0.7,1.5l-0.1,1.1l-0.4,1.4l0.3,0.6l0.8,0.9
		l0.1,0.6l-0.1,0.5l-0.6,0.6l-0.8,1.4l-0.1,0.9l0.9,6.5l0.1,1.6l-0.6,0.7l-2.8-0.1l-0.3,0.3v2.5l-0.4,1.1l-0.6,1.1l-0.3,1.6
		l-0.2,3.4l0.2,0.6l0.9,1.2l0.4,2.1l-0.1,0.4l0,0l-0.9,0.1l-1,0.6l-0.8-0.1l-1-0.9l-3.9-2.5l-0.9-0.1l-1.7-0.5l-2.3-0.9l-1.4-1.4
		l-1.1,0.5l-1.6-0.8l-0.9-0.6l-0.8-0.9l-2.9-1.7l-1.9-2L133.7,307.5z"/>
	<path id="Formosa" class="st1" d="M107.2,173.3v-23l0,0l1.1,0.8l1.3,3.2l1.6,2l0.4,1.5l0.9,0.9l0.9,0.3l1.3,1.1l0.1,0.9l0.9,0.7
		l1,0.1l1.9,1.7l2,1l2.4,1.6l1.3,2.9l1.7,0.6l3.4,0.6l0.5,0.7l3.9,1.3l1.5,0.1l1.6-0.4l7.3,4.9l1.8,1.9l4.5,2.4l2.4,1.8l1.8,0.6
		l1.8,0.1l1,0.1l1.3,1.5l2.2,0.1l1.6,0.9l2.4,0.7l1.5,1.2l0.3,0.9l0.9,0.9l0.5,1.3l1,0.8l-0.3,1.6l-2.2,2.6l-0.8,0.6l0.1,0.9
		l-1.2,1.7l0.5,0.6l-1.9,1.5l-0.6,0.2l-1.3,1.3l0.1,0.7l-1,2.4l-0.1,1.6l0.6,0.9l-0.1,0.8l-1.7,3.1l-0.5,0.2l0,0l-1.4-0.8l-2.6-2.8
		l-2.6-2l-1.4-1.6l-3.1-0.9l-0.9,0.3l-1-0.1l-0.5-0.4l-0.5-1.9l-3.1-0.6l-0.4-1.6l-2.1-2.8l-2.1-1.3l-2-0.9l-0.6-1.1l-0.2-1.3
		l-2.1-2.1l-1.4-2l-3.9-1.9l-3.1-2.5l-0.7-0.8l-0.6-1.4l-0.8-1.1l-0.4-0.2l-2.8-0.5l-1.3-1.3l-1.3-0.6l-0.6-1.1l-1.5-1l-1.1-0.3
		l-1.1-0.8L107.2,173.3z"/>
	<path id="Jujuy" class="st1" d="M70,144.8l-0.5,1.8v1.3l-1.3,2.8l0.1,0.7l1.3,5.2l0.6,0.6l1.9,0.1l0.5,0.7l-0.1,1.4l-0.4,1.3
		l0.1,0.4l1,0.4l0.9,1.9l0.1,0.6l0.9,0.4l0.8-0.6l1-0.2l1.5,0.8l1.1,1.3l0.9-0.6l0.4-0.6l2.4,0.1l0.3,9.4l-0.3,1l-1.6,2.2l-1.4,0.3
		l-1.4,0.9l-0.5,0.5l-0.7,1.2l-2.6-2.3l-0.5,0.6l-0.7,1.5l-1.6-0.5l-1.1-0.8l-2.1-0.1l-3.2-0.9l-0.7-0.4l-2.1-3l-0.1-0.6l0.1-0.8
		l-0.2-0.4l-1.5-1.1l-0.4-0.1l-0.5,0.3l-0.6-0.7l-0.4-1.2l0.1-1.2l0.5-0.8l-0.1-2.6l-2.3-1.6l-2.1-0.7l-0.5,0.1l-0.4,1.9l0.5,2
		l-0.1,1.6l-1.6,4.9l-0.3,0.5l-2.1-0.4l-2.2-1l-2.7-3.1l-0.9-0.3l-1.5-1.2l0,0l1.3-4.8l1.9-5.4l-2.4-2.5l0.8-1.4l1.4-1.2l-0.1-1.6
		l3.2-1.4l0.5-2.8l0.6-0.4l0.9-0.1l3.5-1.1l0.5-0.6l1.1-4.1l1.9,0.7l2,1.4l1.5,1.9l0.8,0.6L70,144.8z"/>
	<path id="La_Pampa" class="st1" d="M93.6,404.4l-0.7,0.1l-0.8-0.2l-4.9-3.6l-1.4-1.3l-2.3-1.3l-1.2-0.6l-2.6-0.9l-1.1-0.1l-3.3-0.6
		l-3.1-0.2l-1.6,0.1l-1.1,0.4l-1.6,0.2l-0.6-0.5l-1.8-0.5h-0.4L64,396l-4.1-1.4l-3.4-0.3l-1.7,0.4l-2.4-0.7l-0.4-1.5l-0.9-1
		l-1.7-0.9l-2.3-0.7l-1.4-0.8l-0.8-1l-0.4-1.9l-1-0.2l-1.4,0.6l-2.4,0.1l-1.3-1l-0.6-1.3l-0.5-0.6l-0.7-0.3l-0.6,0.1l-0.6-0.7
		l-0.1-1.1l0.1-0.5l0.7-0.7l0.9-0.5l0.4-1v-0.8l-0.2-0.6l-0.9-1.4l-1.4-0.6l-4.4-0.4l0,0v-22.5h-0.6l0.1-2.6h21.6l0,0h19.8v-15.8
		l0,0h22l0,0v70L93.6,404.4L93.6,404.4z"/>
	<path id="La_Rioja" class="st1" d="M71.2,259.1l-0.2,0.3l-3.3,0.9l-1.1,3.3l-0.4,0.6l-3.1,9.9l0.1,12.4l0,0l-1.4,0.3l-0.8-0.1
		l-1.1-0.5l-1.1,0.2l-1.6,0.7l-1.7,0.1l-2.8-0.3l-1.1-0.5l-0.9-0.1l0,0l-0.6-1.4l-1-1.8l-1.4-1l-1.1-1.1l-0.8-2.6l0.6-4.1l-0.9-0.7
		l0.6-2.1l-1.2-2.4l-0.4-0.4l-0.7-0.4l-1.6-2.1l-2.4-2.4l-0.3-1.2l-0.4-0.6l-3.6-2.9l-1.4-1.4l-0.4-0.9l-3.6-2.9l-2-0.9l-2.9-0.7
		l-1.7,0.5l-2,0.1l-0.4-0.1l-0.1-1.3l0.9-5.1l0.4-0.1l0.2-0.3l0.1-0.9l-0.3-2.5l-2.5-2.6l-0.6-2.1l-2.5-2.1l-1.2-0.2l-2.8-0.9l0,0
		l1.6-1.3l2.4-2.7l0.8-2l1.4-0.4l0.5-1l0.4-1.9l0,0l3.2,0.3l2.9-0.6l2.6-0.1l0.2,0.2v0.5l-0.2,0.9v2.1l0.4,0.4h0.6l2.9,1.5l1.6,0.2
		l1.1,0.4l0.2,1.3l0.4,0.6l0.6,0.8l0.6,0.3l1.3,0.3l0.7-0.1l1.4-2h0.4l1.3,0.9l0.4,0.6l2.4,0.3l0.9-0.1l0.7-0.9l0.4-0.1l0.6,0.1
		l5.5,2.4l0.6,0.7l1.4,3.1l0.1,1.7l0.3,0.6l3.1,1.6l4,3.7l0.6,1.1l0.1,1.4l1,1.4L71.2,259.1z"/>
	<path id="Mendoza" class="st1" d="M2.8,352.5l0.4-1L3,348.6l0.5-0.9l0.4-0.4L3,344.5l0.2-0.4l0.1-1.6l-0.4-2.4L1.3,339l-0.2-0.9
		l0.3-0.5l1.1-0.2l0.9-0.4l0.2-0.4l0.1-2.4l1.6-5.3l1.1-2.1l1.4-2.1v-1.8l0.8-0.2l1.3,0.1l0.9-0.6l-1.1-7.1l0.4-3.4l1.2-2.6
		l-0.4-1.6l-1.3-0.6L9.2,307l-0.6,0.9L8.2,308L7,306.1l0.1-1.6l-0.2-0.4l1-1.6l0.4-1.1L7.7,301l-1.3-1.4l-0.4-2l0.3-1.9l-1.3-3l0,0
		l1.1-0.2l2.4,0.1l1.9-0.6l2.1-0.1l0.4-0.4l0.1-1.4l0.4-0.5l2-1l0.6-0.1l1.9-0.8l0.9-0.6l0.8,0.2l0.9,1.3L21,289l1.1-0.1l0.7,0.2
		l1.5,0.9l2.5,0.6l0.9-0.1l0.2-0.4l0.2-1.1l0.4-0.2l1.2,0.4l1.6,0.1l2.6-0.6l0.7,0.5l0.4,0.9l1.3,1.1l2.1,0.4l1.3-0.1l1.2,0.4
		l1.5,1.7l0,0l0.4,0.4l0.4,1.1l0.6,2.9l0.6,1.5l-0.4,2.4l0.4,0.7l0.2,3.1l-0.1,0.5l0.5,3.3l2.2,4.4l0.5,1.6l0.4,0.5l0.8,0.6l1.1,1.9
		l0.3,1.2l-0.2,1.1l-0.9,1.1l0.1,2.4l0.9,3.4l1.9,3.2l0.6,2l0.4,3v3.6l-0.2,2.4l-1.4,7.3l0.2,0.5l0,0H30.1l-0.1,2.6h0.6v22.5l0,0
		l-1.1-0.2l-1.7-0.8l-3.9-2.1l-1.4,0.3l-1.6-0.4l-0.4-0.4v-0.5l-0.4-0.8l-2.4-1.1l-1.7,0.1l-0.9,0.3l-1.1-0.1l-1.1-0.3l-1.1-0.8
		l-1.1-1.6l0.4-1.3l-0.1-1.2L9.5,363l-0.6-1.4L7.3,360l-1.1-0.4l-0.7-1.2l-0.6-2.3L4.6,356l-0.8,0.3l-0.3-0.4l-0.2-1.1l0.2-0.4
		l0.1-0.8L3.4,353L2.8,352.5z"/>
	<path id="Misiones" class="st1" d="M189.6,219.2h0.9l0.6,1.1l1.1,0.5l0.4-0.1l1.7-1.4l0.4-1.3l-0.1-0.6l0.1-0.7l0.4-0.8l1.7-1.9
		l2.1-0.7l1.6-0.9l0.9-1l1.2-0.3l0.4-1.4l0.7-0.5h0.4l1.9-3.3l0.4-2.1l-0.1-0.6l0.4-0.4v-0.4l-0.3-0.4v-2.6l0.7-0.5l-0.3-4.2
		l0.4-1.1l0.6-0.1l1.2,0.9l0.9-0.7l0.9-0.4l1.8,0.1l0.9-0.9l2.9,2l0.8,2.4v2.1l2.1,3.5l0.2,0.8l-0.2,0.9l-0.6,0.8v2.1l-0.4,2.6
		l0.5,2.7l-1.4,3.6l-0.4,0.6l-0.2-0.3l-1.9,0.6L214,218l-0.6,0.4H213l-1.7,1.9l-1,0.5l-2.2,0.5l-2,0.9l-1.1,0.1l-0.2-0.1l-0.1-0.3
		h-0.3l-1.1,1.9l-0.1,0.9l-1.4,1.5l-2.1,0.4l-1.9,0.9l-0.7,0.8l-0.1,0.8l-0.9,0.9l-2.3,0.8l0,0l-1.3-1.1l-1.1-1.9l-0.4-2.6l-0.9-2.1
		l-1-1.7l-0.1-0.6l0.3-1.3L189.6,219.2z"/>
	<path id="Neuquén" class="st1" d="M-13.5,408.4h0.2l0.6,0.8l0.4,0.1l1.2-0.1l0.2-0.3l0.6-2.7l0.6-1.7l0.2-1.5l-0.4-3.4l0.1-1.3
		l0.4-0.8l0.8-0.6l3.6-2.1l1.6-0.1l0.8-0.9l0.4-1.7l0.1-0.5l-0.2-0.6l-1.4-1.1l-0.3-0.6l-0.6-3.1l0.2-2.6l-1.6-3.8l-0.7-2.3l0.1-1.1
		l0.7-0.6l0.2-2.1l-0.7-1.3l-0.4-1.2l0.1-0.6l0.4-0.5l0.4-2l-0.9-4.4l2-5.8l0.2-0.1l0.9,0.2l3.2-1.1l0.1-0.4l-0.3-0.7l0.2-1.1L1,353
		h1.6l0.6-0.4l0,0l0.6,0.6l0.2,0.6l-0.1,0.8L3.7,355l0.2,1.1l0.3,0.4l0.8-0.3l0.3,0.1l0.6,2.3l0.7,1.2l1.1,0.4l1.6,1.6l0.6,1.4
		l1.5,0.9l0.1,1.2l-0.4,1.3l1.1,1.6l1.1,0.8l1.1,0.3l1.1,0.1l0.9-0.3l1.7-0.1l2.4,1.1l0.4,0.8l0.2,1.1l0.4,0.4l1.6,0.4l1.4-0.3
		l3.9,2.1l1.7,0.8l1.1,0.2l0,0l0,0l0,0l-0.1,23l-2.9,1.5l-0.8,0.2l-0.9,0.8l-0.9,1.7l-1.6,1.4l-1.7,2.9l-1.5,0.9l-1,0.1l-1.6,1
		l-1.2,2l-1.6,1.3l-3.7,1.4l-2.4,1.3L8.7,416l-0.3,0.9l0.3,0.9v1.2l-0.9,2.9L6.3,424l-2.6,0.9l-1.6-0.4L1,425l-0.8,0.8l-2.1,0.2
		l-0.9,0.4l-1.3,0.8l-1.6,1.4l-0.2,0.9l0.8,1l0.3,1.2l-0.4,0.9l-1.1,1.4l-1.1,0.6l-1.1,0.1l-0.9-0.2l-1.9-0.9l-4.2-0.4l0,0l0.3-0.9
		l-0.1-0.7l-1.3-3.1l1.1-1.4l0.3-0.7v-1.1l0.8-2.1l0.6,0.3l0.3-0.1l0.6-1.5l-0.1-0.6l-0.4-0.3l-0.2,0.4l-0.9-0.9l-0.4-0.7l0.4-1.5
		l1.6-1.1l0.4-1.6l-0.9-3.7l-0.1-1.7L-13.5,408.4z"/>
	<path id="Río_Negro" class="st1" d="M-14.5,449.8l-0.4-2.4l-1.6-3.6v-0.5l0.9-1.3l-0.2-2l-0.4-1.3l0.5-2l0.3-3.1l-0.2-0.8l0,0
		l4.2,0.4l1.9,0.9l0.9,0.2l1.1-0.1l1.1-0.6l1.1-1.4l0.4-0.9l-0.3-1.2l-0.8-1l0.2-0.9l1.6-1.4l1.3-0.8l0.9-0.4l2.1-0.2l0.8-0.8
		l1.1-0.5l1.6,0.4l2.6-0.9l1.5-2.1l0.9-2.9v-1.2l-0.3-0.9l0.3-0.9l0.6-0.9l2.4-1.3l3.7-1.4l1.6-1.3l1.2-2l1.6-1l1-0.1l1.5-0.9
		l1.7-2.9l1.6-1.4l0.9-1.7l0.9-0.8l0.8-0.2l2.9-1.5l0.1-23l0,0l4.4,0.4l1.4,0.6l0.9,1.4l0.2,0.6v0.8l-0.4,1l-0.9,0.5l-0.7,0.7
		l-0.1,0.5l0.1,1.1l0.6,0.7l0.6-0.1l0.7,0.3l0.5,0.6l0.6,1.3l1.3,1l2.4-0.1l1.4-0.6l1,0.2l0.4,1.9l0.8,1l1.4,0.8l2.3,0.7l1.7,0.9
		l0.9,1l0.4,1.5l2.4,0.7l1.7-0.4l3.4,0.3l4.1,1.4l1.1-0.6h0.4l1.8,0.5l0.6,0.5l1.6-0.2l1.1-0.4l1.6-0.1l3.1,0.2l3.3,0.6l1.1,0.1
		l2.6,0.9l1.2,0.6l2.3,1.3l1.4,1.3l4.9,3.6l0.8,0.2l0.7-0.1l0,0l0.1,23.3l3.4,0.6l1.5,1l1.3,1.3l1.7,2.8l0,0l-3.7,1.9l-9.2,0.2
		l-1.3-0.6l-0.7-0.8l-0.9-0.5l-2-0.6l-1.9-1.1l-6-2.1l-0.7-1.7l-1.7-0.4l-0.9,0.3l-1.9,2.1l-0.6,2.5l0.2,2.1l1.2,5.6l0.8,0.9
		l0.1,0.4l-0.5,2.9l0.4,1.4l-1,2.7l-0.1,0.6L72,450l0,0l-0.9-0.2H-14.5z"/>
	<path id="Salta" class="st1" d="M93.6,195.1l-6.8-0.1l-3.5-1.1l-3,6.6l-0.8,2.7l0,0l-2.8,0.1l-1.4-0.2l-1.3,0.8l-0.4,0.1l-4.4-1.6
		l-0.5-1.3l-0.4-0.1l-1.4,0.7l-2.9-0.6l-0.2,0.3l-0.2,2.6l-0.3,0.4l-3.5-0.5l-2.1-0.5l0,0h-1.2l-0.4,0.1l-0.9,1.9l-0.2,0.2l-0.6-0.1
		l-1.2-1.2l-1.4-2.8l-2.3-3.1l-0.2-1l0.1-1.2l0.8-0.6l2.1-0.1l1.1-0.9l0.4-1.9l-0.9-2.7l-0.4-0.4l-16,0.2l-8.8-1.7l0,0l0.9-0.1
		l0.9-0.4l-1.9-3.2L27,184l-0.3-0.8l0.1-0.4l0.8-1.6l1.5-2.4l0.3-0.2l0.6,0.1l0.9-1.4l11.8-5.3l1.1-4.1l0,0l1.5,1.2l0.9,0.3l2.7,3.1
		l2.2,1l2.1,0.4l0.3-0.5l1.6-4.9l0.1-1.6l-0.5-2l0.4-1.9l0.5-0.1l2.1,0.7l2.3,1.6l0.1,2.6l-0.5,0.8l-0.1,1.2l0.4,1.2l0.6,0.7
		l0.5-0.3l0.4,0.1l1.5,1.1l0.2,0.4l-0.1,0.8l0.1,0.6l2.1,3l0.7,0.4l3.2,0.9l2.1,0.1l1.1,0.8l1.6,0.5l0.7-1.5l0.5-0.6l2.6,2.3
		l0.7-1.2l0.5-0.5l1.4-0.9l1.4-0.3l1.6-2.2l0.3-1l-0.3-9.4l-2.4-0.1l-0.4,0.6l-1,0.4l-1.1-1.2l-1.5-0.8l-1,0.2l-0.8,0.6l-0.9-0.4
		l-0.1-0.6l-0.9-1.9l-1-0.4l-0.1-0.4l0.4-1.3l0.1-1.4l-0.5-0.7l-1.9-0.1l-0.6-0.6l-1.3-5.2l-0.1-0.8l1.3-2.8v-1.3l0.6-1.8l0,0
		l2.6-0.1l0.2,0.2l3.3,1.1l0.4-0.1l1.2,0.5l0.6,0.6l0.3,2.1l0.8,1.6l0.2,0.9l-0.1,0.9l1.1,1.3l0.3,1.9l0.3-0.1l0.2-0.4l0.3-2.6
		l0.4-1.1l0.4-0.8l1.3-1.4l2.4-5.7l14.8,0.1l0.2,0.3l0.1,1.4l0.4,0.6l1.6,1.1l1.6,1.9l1.6,1.2l0.6,0.2l0,0v23l0,0l0.1,3.9
		L93.6,195.1z"/>
	<path id="Santa_Cruz" class="st1" d="M40.4,578.4l-1,1.1l-0.7,1.5l0.3,1.1l-0.9,1.4l-1.4,1.7l-0.5,1.1l1.4-0.1l0.9-2.4l0.3-0.1
		l0.3,0.2L38,589l-1,6.6l-0.3,0.9l-1.1,1.4l-2.4,2.1l-1.8,0.9l-0.9,0.1l-0.8-0.1l-1.2-1.1l-1.1-1.8l-1.1-1l-0.2,0.4l-1.1,0.5
		l-2.1-0.1l-1.4,0.4l-0.5,0.4l1.2-0.1l0.9-0.4l2.3,0.2l1.1-0.2l0.4,0.4l0.6,1.5l1.7,1.2l0.1,0.4l-0.6,0.8l-2.9,1.1l-2.2,1.1
		l-0.7,0.6l-0.9,1.1l-1.6,2.7l-0.4,1.4l-0.6,3.1v2.8L18,618l-1.1,1l-0.9,1.4l1.4-1.4l1.4-0.9l0.6,1.6l0.1,2.3l2.2,7.1l0.1,0.7
		l-0.2,0.7l-0.6-0.2l-0.5,0.1l-1,0.9l-1-0.4l-1.1-0.7h-1l-1.4,0.4l-1.6,1l2.9-0.6l1.7,0.4l1,0.5l2.1-0.4l0.3,0.1l0.9,1.6l1.7,4.1
		l1.4,2.6l1.2,1.9l1.1,1.3l1.4,2.4l0.3,0.9l-0.5,0.9l-0.3,0.1l0.1-1.1l-2.2-0.6l-3.3-0.6l-2.1-1.6l-3.1-1.3h-2.9l-6.9-3.1h-24.7
		l-0.6-2.9l-2.3-2.4l-0.9-0.6l-1.1-0.4l-1.4-3.8l0.7-0.6l0.5-1.8v-1.8l0.8-1.5l-0.5-0.7l-0.8-0.5l-0.3-0.4l-0.3-1.1l0.8-1.5l0.6-0.1
		l0.2-0.4l0.3-3.2l-0.5-1.1l-0.7-0.9l-0.1-0.5l0.6-1.6l-1-0.8l-1.6-0.2l-0.6,0.2l-0.6,0.9l-0.7,0.3l-0.4-0.1l-0.9-0.9h-0.4l-1.8,0.9
		l-1,1.3l-0.9,0.6l-0.7,0.2l-0.6-0.3l-0.2-0.4l-0.6-2.9l-0.6-5.5l-0.7-1.6l-2.5-2.1l-0.2-0.6l0.1-0.6l0.6-1.1l0.1-0.6l-1.1-1.2
		l0.3-1.8l1.1-1.2l-0.9-3.7l-0.7-1.3l1.5-4.6l4.2-0.1l0.6-0.7l-1.1-0.3l-0.1-0.6l1.3-3.1l0.9-1.4l0.3-0.4l0.9-0.5l1.4-0.1l0.7-0.4
		l2.2-2l0.4-0.9v-0.9l-0.3-2.8l-0.4-1.8l0.1-0.4l0.5-0.5l1.7-0.8l1.7-1.1l-0.1-3.1l-0.3-2.1l-1.1-1.4l-0.6-0.1l-0.9-0.8l-0.3-0.9
		l1-2.9l1.6-3.2l0.3-1.7l-0.6-0.5l0.1-0.6l0.5-0.4l0.7-0.3l0.8,0.1l0.4-0.1l1-1.1l0.9-1.4l1.7-0.9l0.2-0.3l0.2-0.9l-0.1-0.6l-1.5-2
		l0.5-4.1l0.3-0.3l1.4-0.3l1.6-1.6l0.3-0.9l-0.1-2.1l-0.7-2l-0.3-3.4l-0.3-0.5l-0.9-0.4l-0.9-0.9l1.8-0.6l1.6-2.2l0,0h52.5l0,0
		l-0.4,1.4v1.1v0.9l0.6,2.8l0.5,1.8l0.4,0.7l2.1,3.1l3.1,2.5l3.6,4.4l1.4,1l0.9,0.1l1.7-0.1l1.8,0.3l0.2,0.3l1.9,0.3l1.4-0.1L59,541
		l0.9-0.1l1.2,0.6l1.6,1.8l0.6,2.6l-0.3,3.9l-0.4,1.4l-1.1,2.8l-0.2,0.2l-1.5-0.1l-0.4,0.1l-1.1,1.1l-1.5,0.4l-0.2,0.4l0.4-0.3
		l1.1-0.1l1.9-1h0.3l0.7,0.4l1.5,2.4v0.6l-0.5,0.1l-1.1-0.5l-0.7,0.3l0.3,1.7l-0.2,0.9l-1.4,0.1l-3.5,3.6l-1.7,2.2l-1.1,0.2
		l-1.5,0.6l-2.1,2.5l-1.4,0.4l-1.9,1l-0.5,0.6l-1.6,3l-0.9,0.4l-1.2,1L40.4,578.4z"/>
	<path id="Santiago_del_Estero" class="st1" d="M70.7,227.6l1.3-0.3l0.9-1.6l-0.9-2l0.1-2.4l1.6-2l0.6-0.1l0.9-2l1.9-5.6h0.5
		l0.6-1.7h1.2l-0.4-3.4l0.6-1.9l-0.1-1.1l0,0l0.8-2.7l3-6.6l3.5,1.1l6.8,0.1l0,0h21.8l0.1,33.7l0,0l-4.9,31.7l0,0l-2.2-5.8
		l-12.1,0.2l-2.5-0.1l-0.3-0.8l-0.6-0.6l-0.6-0.3l-1.3-0.3l-1.6,0.2l-1.2-0.1l-2.4-1.3l-0.5-0.7v-0.5l-2.9-0.9l-7.9,2l0,0l-1.4-2.6
		l-0.6-1.5l-0.4-3.5l-0.2-4.6l-0.1-0.6l-0.3-0.4l-0.7-0.3v-0.8l1.3-1.7l0.1-1.1l-0.1-2.1L70.7,227.6z"/>
	<path id="Santa_Fe" class="st1" d="M133.7,307.5l0.3,0.4l-0.1,0.6l-1.7,2.4l-0.1,1.1l-0.6,1.4l-1.1,0.2l-1.4-1l-2.3-0.4l-0.9,0.3
		l-0.2,0.6l0.1,0.5L115.6,325l-14.8,0.1l0,0l11.8-19.3l0.5-0.8h0.5l0.6-0.4l0.6-1.1l0.4-2.3l-0.1-0.6l-1.2-1.9l-1-3.2l-1.6-1.5
		l-0.4-1.6l-0.9-0.6l-1-1.1l0.1-3.3l-0.4-2.9l1.4-1.2l3.7-13.8l-2.1-0.8l-2.4-1.6l0.1-1.6h0.6l0.7-4.4l0,0l4.9-31.7l0,0h36.9l0,0
		l-0.4,1.4l-0.6,0.4l-1-0.5l-0.5,0.2l-0.4,0.6l0.1,3.6l-0.4,3l-1.5,5.9l-2.2,2.3L144,247l-1.2,2.8l-0.1,3.1l-0.9,3.3l0.2,0.6
		l0.9,1.3l0.1,0.6l-1.3,3.7l0.2,1l0,0l0.9,1.4l0.1,2.4l-0.1,0.8l-2,3.5l-3.2,4.9l-0.6,0.4l-1.5,2.9l-2.6,3l-1.1,1l-2,0.2l-0.5,0.1
		l-0.3,0.3l-0.8,6.3l0.4,2.5l-0.9,2.6l0.1,1.9l0.4,2.9l0.2,0.9l2,3.9l2.4,1.3L133.7,307.5z"/>
	<path id="San_Juan" class="st1" d="M5.1,293l-0.9-0.4l-0.4-3l0.6-0.6l0.6-0.1l0.4-1.1l-0.1-0.4l-0.9-0.9L3,286.4l-0.6-0.7l-1.6-4.1
		l0.4-3.6l0.5-2.4l0.9-1l0.3,0.3l0.9-0.3l0.9-0.9l0.1-0.5l-0.5-0.6l-0.1-0.4l0.2-1.6l0.6-2.3l0.7-1.8l1-1.8l1.1-0.7h0.7l0.8-0.4
		l0.5-0.7l0.9-2v-0.7l-1.2-2.1l0.2-1.2L9.6,254L9,253.4l0.1-1.8l-0.9-2.7v-1.2l1.6-2.2l0.9-0.1l0.6-0.6l0.1-1.1l0.9-3.2l-0.3-1.1
		v-0.7l0.6-1.1l0.4-0.2l0.2-2.6l0,0l2.8,0.9l1.2,0.2l2.5,2.1l0.6,2.1l2.5,2.6l0.3,2.5l-0.1,0.9l-0.2,0.3l-0.4,0.1l-0.9,5.1l0.1,1.3
		L22,253l2-0.1l1.7-0.5l2.9,0.7l2,0.9l3.6,2.9l0.4,0.9l1.4,1.4l3.6,2.9l0.4,0.6l0.3,1.2l2.4,2.4l1.6,2.1l0.7,0.4l0.3,0.4l1.2,2.4
		l-0.6,2.1l0.9,0.7l-0.6,4.1l0.8,2.6l1.1,1.1l1.4,1l1,1.8l0.6,1.4l0,0l-3.1,0.2l-4.4-0.6l-0.8,0.1l-0.2,0.5l-0.1,2.4l0.1,4.2
		l0.4,1.1l0,0l-1.5-1.7l-1.2-0.4l-1.3,0.1l-2.1-0.4l-1.3-1.1l-0.4-0.9l-0.7-0.5l-2.6,0.6l-1.6-0.1l-1.2-0.4l-0.4,0.2l-0.2,1.1
		l-0.2,0.4l-0.9,0.1l-2.5-0.6l-1.5-0.9l-0.7-0.2l-1.1,0.1l-0.5-0.4l-0.9-1.3l-0.8-0.2l-0.9,0.6l-1.9,0.8l-0.6,0.1l-2,1l-0.4,0.5
		l-0.1,1.4l-0.4,0.4l-2.1,0.1l-1.9,0.6l-2.4-0.1L5.1,293z"/>
	<path id="San_Luis" class="st1" d="M42.4,294.4l-0.4-1.1l-0.1-4.2l0.1-2.5l0.2-0.5L43,286l4.4,0.6l3.1-0.2l0,0l0.9,0.1l1.1,0.5
		l2.8,0.3l1.7-0.1l1.6-0.7l1.1-0.2l1.1,0.5l0.8,0.1l1.4-0.3l0,0l1.6,0.1l4.2,2.6l0.8,0.9l0.7,3.2l1.8-0.1l1.5-0.4l0.4,0.4l0.5,3.6
		l-0.1,1l-1.6,5.8l-1.6,3.1l0.6,12.3v15.6l0,0v15.8H52l0,0l-0.2-0.5l1.4-7.3l0.2-2.4v-3.6l-0.4-3l-0.6-2l-1.9-3.2l-0.9-3.4l-0.1-2.4
		l0.9-1.1l0.2-1.1l-0.3-1.2l-1.1-1.9l-0.8-0.6l-0.4-0.5l-0.5-1.6l-2.2-4.4l-0.5-3.3l0.1-0.5l-0.2-3.1l-0.4-0.7l0.4-2.4l-0.6-1.5
		l-0.6-2.9l-0.4-1.1L42.4,294.4z"/>
	<path id="Tierra_Del_Fuego" class="st1" d="M33.2,701.2l-1.1-0.5l-1.2-0.2l-0.9,0.2l-0.3,0.4l-2.4,0.2l-0.5-0.2l-1.1-1.4l0.2-46.8
		l2.1,3.6l1.6,1.7l0.5,0.9l0.4,1.2l0.5,2.5v0.3h-0.2l-0.6-2.4l-0.5-0.2l-0.5,0.2l-2.3,2.6l-0.3,1.4l0.3,0.9l0.6,0.7l1.2,0.7l1.6,0.1
		l1.1-0.4l0.5,0.2l0.9,1.9l0.6,3.1l0.7,1.5l2.4,2.6l2.8,2.6v1.1l0.3,0.8l3.9,3.4l3.5,2.5l3.6,2.1l2.1,2.9l4,2.8l5.6,2.6l1.3,0.3
		l5.3-0.9h1l1,0.4l-1.3,3.6l-1.4,2.6l-0.4,0.1l-0.3-0.2l-0.1-0.3l-1.1-0.2l-1.5,0.6l-1.3-0.1l-0.3-0.4l-0.5-0.2l-1.6-0.1l-0.6,0.1
		l-0.9,1.3l-1.2,0.6l-0.9,0.4l-2.4-0.1l-0.9,1.5l-1.4-0.1l-1.1-0.4l-2.1-1.9l-2.8-0.9l-6.2-0.7l-2.9,0.2l-3.7-0.6L33.2,701.2z
		 M25.9,700.2l0.6,1.3l0.4,0.3l-0.6,0.4l-0.5-0.1L25.9,700.2z"/>
	<path id="Tucumán" class="st1" d="M70.7,227.6l-0.9,0.1l-1.4-0.9l-2.1,1.6l-0.8,1.2l-1.3-1.5l-0.4-1.9l-0.9-0.5l-0.5,0.3l-0.4-0.1
		l-1.2-2.1l-0.7-3.4l-1.4-1.2l-1.2-0.4l0.6-1.4l3.4-4.2l0.4-2.8l-0.2-0.6l-2-1.5l-2.5-0.7l-0.1-2.1l0.7-1.7l0.1-0.6l0,0l2.1,0.5
		l3.5,0.5l0.3-0.4l0.2-2.6l0.2-0.3l2.9,0.6l1.4-0.7l0.4,0.1l0.5,1.3l4.4,1.6l0.4-0.1l1.3-0.8l1.4,0.2l2.8-0.1l0,0l0.1,1.1l-0.6,1.9
		l0.4,3.4h-1.2l-0.6,1.7h-0.5l-1.9,5.6l-0.9,2l-0.6,0.1l-1.6,2l-0.1,2.4l0.9,2l-0.9,1.6L70.7,227.6z"/>
	<path id="Tierra_Del_Fuego" class="st1" d="M133.6,615.5c0.3,0.1,0.4,0.1,0.4,0.4h0.1c0.2-0.4-0.6-1.3-0.9-0.9
		C133.3,615.2,133.4,615.3,133.6,615.5z M136.9,615.4c0.4,0.4,0.7,0.5,1.1,0.7c0.3,0.1,0.6,0.3,0.8,0.6c-0.6,0.6-0.6,0-1.1-0.3
		c-0.4,0.1-0.8,0.1-1,0.5v0.3c0.4,0.5,0.9,0.2,1.4,0.1c0.2,0.1,0.4,0.2,0.6,0.3c0.3-0.4,0.4-0.9,0.8-1.1c0-0.3-0.2-0.6-0.3-0.9
		c-0.5-0.2-1.1,0.2-1.6,0.1c-0.1-0.1-0.3-0.1-0.4-0.2c-0.2-0.1-0.2-0.4-0.4-0.6h-0.2l-0.1,0.1C136.7,615.1,136.8,615.3,136.9,615.4z
		 M126.3,625.3L126.3,625.3c0-0.2,0-0.5-0.3-0.5l-0.1,0.1c-0.1,0.2-0.1,0.4-0.2,0.6c-0.1-0.2-0.6-0.4-0.8-0.1
		c0.2,0.3,0.4,0.5,0.8,0.7h0.4l0.3-0.4c-0.1,0.1-0.4,0.1-0.5,0v-0.1L126.3,625.3z M140.2,616.1c0.3,0.3,0.8,0.6,1.1,0.1l-0.1-0.2
		v-0.1c0.1,0,0.1-0.1,0.2-0.1c-0.2-0.1-0.4-0.2-0.6-0.3c-0.3-0.1-0.6,0.1-0.8,0.1C139.9,615.7,140.1,615.9,140.2,616.1z
		 M142.4,615.1c0.6,0.4,1.4,0.1,1.9,0.4c0.4,0.1,0.4,0.4,0.6,0.7c0.3,0.5,1.1-0.1,1.5-0.1c-0.1-0.4-0.1-0.7-0.4-1
		c-0.4-0.5-0.6,0.2-0.8,0.4h-0.1c-0.1-0.1-0.2-0.4-0.2-0.6c-0.4-0.1-0.9,0.1-1.2,0.1c-0.4,0-0.6-0.3-0.9-0.4
		c-0.1,0.1-0.3,0.1-0.4,0.1l-0.1,0.1C142.4,614.9,142.4,615,142.4,615.1z M142.6,616.9c0.3-0.1,0.5-0.1,0.7,0l-0.2,0.2l-0.1,0.3
		l0.4,0.2c0.5,0,0.9-0.4,1.4-0.6l-0.1-0.2c-0.3,0-0.5-0.1-0.7-0.2l-0.1-0.3l-0.3-0.1v0.4c-0.3-0.1-0.5-0.6-0.9-0.6l-0.1,0.4
		c-0.2,0-0.4,0.1-0.6,0.1c0,0.1,0.1,0.1,0.1,0.2L142.6,616.9z M128.1,627.5c0.6,0.3,0.8,0.2,1.4,0.1c0.5-0.1,0.4-0.4,0.6-0.8h-0.5
		c0.3-0.6,0.2-1.1,0.5-1.6c0.1-0.3,0.3-0.7,0.1-1h-0.1c-0.1,0.1-0.2,0.2-0.3,0.4c0.1,0.1,0.1,0.1,0.1,0.1c0.4,0.9-1.1,1.4-1.6,1.5
		l-0.1-0.1c0.1-0.6,1.1-0.6,1.1-1.2c-0.1-0.2-0.5-0.6-0.7-0.5c-0.4,0.1-0.4,0.8-0.7,0.9c-0.5-0.1-0.7,0-1,0.4
		c0.5,0.1,0.5,0.5,0.4,0.9h0.1c0.1,0.2,0.4,0.1,0.6,0.3c0.1,0.1,0.1,0.3,0.1,0.4h0.1C128.1,627.3,128.1,627.4,128.1,627.5z
		 M143.9,635.5l-0.4,0.1l-0.3-0.1c0.1-0.2,0.2-0.4,0.4-0.5v-0.3l0.3-0.1l-0.1-0.2c-0.3,0-0.4,0-0.7,0.1l-0.2,0.4l0.1,0.2
		c-0.3,0.1-0.4,0.2-0.6,0.4c0.1,0.1,0.4,0.2,0.4,0.4l0.3-0.1c0.2,0.2,0.5,0.4,0.8,0.5c0.1-0.4,0.8-0.6,0.5-1L143.9,635.5z
		 M143.7,632.2c0.1-0.2,0.1-0.3-0.1-0.5c-0.3-0.1-0.6,0-0.8,0c-0.1-0.2-0.1-0.5-0.3-0.6c-0.1,0.3-0.1,0.4,0,0.7
		c0.3,0.3,0.6,0.4,0.5,0.9c0,0.2-0.1,0.5-0.3,0.7c0.1,0.1,0.1,0.3,0.1,0.5h0.1c0.1-0.6,0.9-0.5,0.8-1.1l-0.2-0.1
		C143.7,632.5,143.7,632.3,143.7,632.2C143.8,632.2,143.7,632.3,143.7,632.2z M158.5,628.5L158.5,628.5L158.5,628.5L158.5,628.5
		l-0.2,0.2c-0.1,0-0.1,0-0.1,0c-0.1-0.1-0.2-0.3-0.4-0.2l-0.1,0.1l0.1,0.1c-0.3,0.1-0.6,0.2-0.8,0.5c0.1,0.3,0.3,0.4,0.4,0.7
		c0.2,0.1,0.5,0.4,0.8,0.4v0.1l-0.1,0.1l0.1,0.1l0.2,0.1l0.1-0.1c-0.1-0.1,0-0.3-0.1-0.4c-0.1-0.3-0.1-0.5-0.1-0.8
		c-0.1,0.1-0.1,0.1-0.2,0.1l-0.1-0.1v-0.1h0.1l0.1-0.1c-0.1-0.1-0.1-0.1-0.1-0.3c0.1,0,0.3,0.1,0.4,0.1c0.1-0.1,0-0.2,0.1-0.3l0,0
		L158.5,628.5z M143.4,628.3C143.5,628.3,143.5,628.3,143.4,628.3c0.1,0.1,0.2,0.1,0.2,0.2c0.1,0,0.1-0.1,0.2-0.1
		c0-0.2-0.1-0.3-0.2-0.5c0-0.1,0.1-0.2,0-0.3l-0.1-0.1C143.3,627.6,143.4,627.9,143.4,628.3L143.4,628.3z M166.1,622.7
		c-0.3,0-0.5,0.2-0.8,0.2s-0.6-0.1-0.9-0.2v-0.1c0.5-0.1,1.2-0.1,1.5-0.6l-0.1-0.4c-0.7-0.5-1.5-0.3-2.2-0.7c-0.5,0.1-0.8,0.2-1.2,0
		c-0.4-0.1-0.6-0.4-0.8-0.7l0.7-0.4l0.6,0.3l-0.1-0.4l0.1-0.1c0.5,0.1,0.8,0.6,1.3,0.6c0.5,0.1,1.2,0.4,1.6,0.1l0.1-0.2l-0.1-0.1
		h-0.3c0.1-0.3,0.4-0.3,0.4-0.5c-0.7-0.1-1.1-1.1-1.3-1.7c-0.2-0.9-1.1-0.4-1.7-0.4c-0.5,0.1-1,0.1-1.5,0.1c-0.4,0-0.8,0-1.1,0.2
		c-0.3,0.3-0.5,0.4-0.6,0.8c-0.1,0.4-0.6,0.8-0.6,1.1c0.1,0.1,0.4,0.1,0.5-0.1c0.1-0.1,0-0.3,0.1-0.4c0.2,0.3,0.1,0.6,0.3,0.9h0.1
		l0.4-0.1l0.1,0.1l0.1,0.2c-0.1,0.1-0.3,0.2-0.4,0.4l0.1,0.2c0.2,0.1,0.4,0.1,0.6,0.3l0.1,0.4c-0.2-0.1-0.4-0.4-0.7-0.4l-0.1,0.2
		c0.1,0.2,0.4,0.5,0.4,0.8l-0.2,0.1c-0.8-0.4-0.3-1.6-1.1-1.9c-0.1,0.2-0.2,0.3-0.4,0.3l-0.1-0.1c-0.1-0.1-0.1-0.3-0.1-0.4l-0.1,0.1
		c0,0.1-0.1,0.2-0.3,0.2c-0.2-0.4,0.1-0.9,0-1.4h-0.3l-0.7,0.4l-0.1-0.1c0.1-0.4,0.2-0.8,0.1-1.1H157c0.1-0.3,0.4-0.7,0.7-0.7
		c0.3,0.2,0.3,0.7,0.5,1c0.4,0.2,0.9-0.1,1.3-0.4c0.2-0.5-0.1-1.1-0.4-1.4c-0.4-0.4-0.7-0.5-1.1-0.8c-0.4-0.3-1.5-0.1-1.8,0.4
		c0.1,0.1,0.1,0.2,0.1,0.4c-0.1,0-0.3-0.1-0.4-0.2c-0.2-0.1-0.4-0.1-0.6-0.1c-0.6-0.1-1.1-0.5-1.7-0.8c-0.2-0.1-0.5-0.1-0.7-0.3
		c-0.1-0.2-0.3-0.4-0.6-0.5c0.1,0.5,0.2,0.6,0.5,1c0.1,0.3,0.5,0.7,0.5,1.1c-0.1,0.6-0.9,0.5-1.4,0.5c-0.2,0.6-0.6,0.8-1.1,0.4
		c-0.3,0.1-0.4,0.6-0.5,0.9c0.6,0.4,1.1,0.5,1.6,0.9l-0.4-0.1l-0.1,0.2c0.1,0.4,0.1,0.6,0.4,0.9l-0.2,0.5c-0.4-0.4-0.6-1-0.9-1.5
		c-0.1,0.3-0.1,0.6-0.3,0.8c-0.4,0.4-0.5,0.6-0.1,1s1.3,0.9,1.8,0.9c0.1,0.1,0.1,0.2,0,0.4c-0.1,0-0.1,0.1-0.2,0.1l-0.1,0.1
		l-0.1,0.4c0.1,0.1,0.1,0.3,0.3,0.4c0,0.3-0.1,0.4,0,0.7c0.1,0.4,0.4,0.6,0.1,1c-0.2,0.1-0.4,0.1-0.6,0.3c0.1-0.1,0.1-0.4,0.1-0.5
		c-0.1-0.3,0-0.4,0.1-0.7c0-0.2-0.1-0.4-0.2-0.6c0-0.2,0.1-0.4-0.1-0.6c-0.3-0.1-0.7,0.1-1,0.1c-0.3,0.1-0.4,0.4-0.6,0.5l-0.2-0.3
		l-1.1,0.8c0,0.2,0.1,0.4,0.2,0.6c-0.2,0.1-0.4,0.1-0.6,0.1l-0.2-0.2c-0.1,0.4-0.1,0.8-0.3,1.1l-0.2-0.2c-0.4,0.1-0.8,0.2-1.1,0.4
		l0.1,0.1c0.1,0.1,0.1,0.3,0,0.4c-0.1,0.1-0.4,0.1-0.5,0.1l-0.1,0.2c0.1,0.3,0.5,0.4,0.6,0.7l-0.2,0.2c-0.4-0.1-0.9-0.7-1.4-0.3v0.4
		c0.3,0.2,0.6,0.3,0.9,0.4v0.1c-0.2,0.1-0.6,0.1-0.8,0.3c0.1,0.1,0.3,0.4,0.4,0.6c-0.3,0.1-0.6,0.1-0.7-0.2h-0.1
		c-0.3,0.4,0.3,0.9,0.6,1l-0.1,0.3c-0.2,0.2-0.4,0.2-0.7,0.2l0.1,0.3v0.2l-0.1,0.1h-0.2c-0.2-0.1-0.4-0.4-0.6-0.5l-0.1,0.1
		c-0.1,0.5,0.5,0.8,0.8,1.1c0.3,0.4,0.3,0.4,0.4,0.9l0.1,0.1l0.4-0.1l0.2,0.1l-0.3,0.3v0.2c0.4,0.4,0.9,0.1,1.1,0.6l-0.1,0.4
		c0.3,0.3,0.6,0.2,0.9,0.4c0.4,0.2,0.5,0.6,0.9,0.7l0.1-0.4c-0.1-0.1-0.3-0.2-0.4-0.4l-0.1-0.1c0.1-0.4,0.4-0.6,0.3-1
		c-0.1-0.4-0.6-0.4-0.9-0.5l-0.1-0.1c0-0.1,0.1-0.4,0.2-0.4c-0.2-0.3-0.4-0.5-0.5-0.9l0.3-0.2c0.1,0.1,0.2,0.4,0.4,0.4
		c0.1-0.2,0-1,0.4-0.8l0.4,0.6l0.2-0.1c0.1,0.3,0.4,0.2,0.6,0.4c0.3,0.2,0.1,0.6,0.5,0.9c0.2,0.1,0.4,0,0.6,0
		c0.4,0.1,0.7,0.6,1.2,0.4l0.1-0.3c-0.1-0.3-0.4-0.4-0.6-0.7c0.2-0.1,0.6-0.3,0.7-0.5v-0.2c-0.4,0-0.7,0.3-1.1,0.3l-0.1-0.1
		c0.1-0.6,0.6-0.4,0.9-0.9c-0.2-0.2-0.5-0.1-0.8-0.1l0.4-0.5l-0.2-0.1c-0.2,0-0.4,0.1-0.6,0.1c-0.2-0.2,0-0.6-0.3-0.8
		c-0.1-0.1-0.4-0.1-0.6-0.1l-0.4,0.2l-0.1-0.1l-0.1-0.2c0.1-0.1,0.3-0.3,0.5-0.4c0.2,0,0.4,0.3,0.6,0.4c0.5,0.1,0.4-0.4,0.8-0.4
		c0.3,0.1,0.4,0.6,0.7,0.6l0.2-0.1l0.1,0.4c0.1,0,0.3,0,0.4-0.1l0.2,0.1c0.1,0.3,0.1,0.6,0.3,0.8l0.2-0.3c0.1,0.3,0.1,0.6,0.3,0.9
		c0.3-0.1,0.7-0.4,0.9-0.7c0-0.1-0.1-0.3-0.1-0.4l0.1-0.1c0.1,0.1,0.3,0.1,0.5,0.1c0.1-0.1,0.1-0.1,0.1-0.2c0.1,0.1,0.1,0.1,0.2,0.2
		c0.3,0.1,0.4,0.1,0.6,0.4c0.2,0.3,0.3,0.8,0.6,0.9h0.2l0.1-0.1c0-0.4,0-1.1-0.4-1.4c0.2-0.3,0.5-0.4,0.8-0.6l-0.3-0.3v-0.4
		c-0.4-0.3-0.6-0.4-1.1-0.4c-0.4,0-0.6,0.3-1,0.1l0.1-0.4c-0.1-0.2-0.2-0.4-0.4-0.5c-0.4-0.3-1-0.4-1.3-0.6
		c-0.4-0.4-0.6-1.1,0.1-1.4l0.1,0.1c0.3,0.8,0.6,0.8,1.4,1.2c0.2,0.1,0.4,0.4,0.6,0.5c0.2,0.1,0.5,0,0.7,0c0.4,0,0.7,0,1.1,0
		c0.2,0,0.4-0.1,0.6-0.1c0.6-0.1,1.1,0.1,1.6,0.1c0.6-0.2,1.1-0.7,1.6-0.9c0.4-0.1,0.9-0.3,1.1-0.6c-0.4,0-0.6-0.1-0.9,0.1
		c-0.4,0.1-0.6,0.4-1,0.1c0.5,0.1,0.7-0.4,1.1-0.5c0.4-0.1,0.9,0.1,1.3-0.1v-0.1c-0.2,0-0.4,0-0.6-0.1c-0.3,0-0.5-0.3-0.8-0.4v-0.1
		c0.5,0,1.1,0.1,1.6,0.1c0.5-0.1,1.5,0,1.9-0.4v-0.1c0.3-0.1,0.8-0.1,1.1-0.1c0.1-0.1,0.3-0.1,0.4-0.2c0.4-0.1,0.6-0.4,1.1-0.4v-0.1
		L166.1,622.7z M144.1,624.2c0.2-0.3,0.4-0.5,0.6-0.9c0.2-0.4,0.7-0.8,0.7-1.2h-0.3l0.6-0.6l0.1,0.1c0.2-0.1,0.4-0.4,0.6-0.6
		c-0.1,0.2-0.1,0.4,0,0.6l0.1,0.1c0.2-0.1,0.6-0.5,0.7-0.8c0-0.4,0.1-0.6,0.4-1v-0.2c-0.1,0-0.2,0.1-0.4,0.1
		c0.1-0.2,0.1-0.4,0.1-0.6c0.1-0.1,0.1-0.1,0.3-0.1l0.1,0.1l0.1,0.2c0.4-0.4,0.6-0.8,1.1-1c-0.2-0.1-0.4,0.1-0.5,0
		c-0.1-0.2,0-0.4,0.1-0.6c0.2-0.1,0.5-0.1,0.7-0.1c-0.4-0.7-1.6-0.5-1.9-1.3c-0.1-0.1-0.4-0.1-0.6-0.1c0,0.1,0.1,0.3,0.1,0.4
		c-0.1,0-0.3,0-0.4,0c0,0.2-0.1,0.7,0.1,0.9c0.2,0.1,0.4,0.3,0.5,0.5c-0.4,0.1-0.8,0.4-1.1,0.4c-0.4,0.1-0.7-0.1-1.1-0.3
		c0.2-0.1,1.1-0.6,1.1-0.9c-0.2,0-0.3,0.1-0.4,0.2c-0.3,0.3-0.6,0.3-1,0.4c-0.7,0.2-1.4,0.4-2.2,0.4l-0.4-0.4c0.3,0,0.6,0,0.8-0.1
		c-0.4-0.2-0.9-0.3-1.4-0.4c0.1-0.1,0.1-0.2,0.1-0.3V617l-0.4-0.1c-0.4,0.2-0.7,0.4-1.1,0.8c0-0.2-0.1-0.6-0.3-0.7
		c-0.1,0.1-0.2,0.4-0.4,0.6c-0.2,0.2-0.3,0.4-0.4,0.7l0.8,0.1l0.3,0.4c-0.6,0.1-1.1,0.2-1.6,0.3c-0.4,0.1-0.9-0.1-1.3-0.1
		c-0.6-0.1-1.1-0.6-1.4-0.9c-0.9-0.7-1.9-0.9-2.8-1.6c-0.1,0.1-0.3,0.1-0.5,0.1c0.1,0.3,0.2,0.5,0.2,0.8c0,0.2,0.1,0.3,0.2,0.4
		c0.2,0.1,0.5,0.3,0.8,0.3c0.5,0.1,0.9,0,1.4,0.3c0.2,0.1,0.3,0.4,0.4,0.6l-0.1,0.1c-0.4-0.1-0.8-0.1-1.2-0.1l-0.1,0.1
		c0.1,0.7,0.4,0.8,1,1.1c0.4,0.2,0.9,0.5,1.3,0.5c0.4,0.6,0.9,0.8,1.3,1.3c0.5,0.6,1.1,0.3,1.5,1c-0.7-0.1-0.9-0.2-1.4-0.7
		c-0.4-0.1-0.8,0.3-1.1,0.3c-0.6-0.1-0.9-0.1-1.4,0.2c-0.4,0.3-0.6,0.4-1,0.3c-0.3-0.1-0.6-0.1-0.9-0.3c-0.2-0.1-0.4-0.3-0.6-0.3
		c-0.2,0.4-0.3,0.8,0,1.1c0.1,0.2,0.3,0.2,0.5,0.4c0.3,0.2,0.2,0.9,0.6,0.7c0.3-0.4,0.3-0.5,0.8-0.5c0.3,0,0.6-0.2,0.8-0.4
		c0.1,0,0.1,0,0.2,0.1h0.1c0.1-0.2,0.1-0.4,0-0.6c0.3-0.1,0.6-0.1,0.9,0c0.5,0.1,0.7-0.4,1.2-0.1c0,0.4,0.1,1.5-0.6,1.4l-0.1-0.2
		c-0.1,0.1-0.2,0.1-0.3,0.1c-0.1-0.1-0.1-0.4-0.2-0.5c-0.6-0.1-0.4,1.1-0.2,1.4h-0.2c-0.2,0.1-0.3,0.4-0.3,0.6
		c-0.3-0.3-0.5-0.3-0.4-0.6c0.1-0.2,0.2-0.4,0.1-0.6c-0.1,0-0.4,0.1-0.5,0.1c0.1-0.1,0.3-0.3,0.4-0.5c-0.4-0.2-0.8,0.1-0.9,0.4
		c-0.1,0.4,0,0.8,0,1.1c0,0.2-0.1,0.3,0.1,0.5c-0.2,0.2-0.3,0.4-0.4,0.6c-0.2,0.1-0.4,0.3-0.6,0.3c-0.3,0-0.6-0.1-0.9-0.1
		c0.4,0.2,0.6,0.4,1.1,0.3c0.1,0,0.4-0.1,0.6-0.2c0.2-0.2,0.6-0.7,0.8-0.3c-0.4,0.7-0.7,1.1-1.6,1.1v0.1l0.1,0.1l-0.1,0.2h-0.1
		c-0.3-0.4-0.6-0.5-1.1-0.5c-0.3,0.4-0.4,0.1-0.4-0.2c-0.1,0.1-0.1,0.4-0.3,0.4l-0.2-0.4c-0.5-0.1-1-0.1-1.5-0.1l0.2,0.5
		c0.3,0.2,0.6,0.2,0.9,0.4v0.1c-0.5,0.2-0.9,0.3-1.5,0.4l0.1,0.6h-0.2c-0.1-0.1,0-0.4-0.1-0.6c-0.1-0.1-0.2-0.1-0.4-0.1
		c-0.3,0-0.4-0.1-0.7-0.2c-0.6-0.2-0.6,0-0.6,0.5l0.1,0.2c0.3,0.1,0.5,0.1,0.7,0.3c0.3,0.5,0.5,0.7,1.1,0.8c0.3,0.4,0.5,0.7,0.8,1.1
		c0.3,0.1,0.6,0.1,0.9,0c-0.1-0.3-0.3-0.6-0.4-0.8c-0.2-0.2-0.6-0.1-0.7-0.4l0.1-0.1c0.4-0.1,1.2-0.1,1.5,0.1c0,0.2-0.1,0.4-0.3,0.4
		c0.1,0.5,0.5,0.9,0.9,1.1c-0.1,0-0.1,0.1-0.1,0.1c-0.1,0-0.2-0.1-0.4-0.1l0.4,0.7l0.6,0.1c0.5-0.3,0.8-0.5,1.1-0.9
		c-0.1-0.5-0.2-0.9-0.7-1.1c-0.1-0.1-0.1-0.2,0.1-0.4h0.1c0.1,0.1,0.2,0.2,0.4,0.3c0.1,0.1,0.5,0.9,0.7,0.7c0-0.1,0-0.2,0-0.3h-0.1
		h0.3c0.2,0.1,0.4,0.3,0.6,0.3c0.7-0.6,1.5-1.4,1.1-2.4c-0.3-0.8,0.4-1,0.9-1.2c-0.1,0.2-0.3,0.3-0.3,0.5l0.1,0.1
		c0.1,0,0.3-0.1,0.4-0.1l1,0.1l0.2-0.1c0.1-0.4-0.3-0.7,0.1-0.9h0.1c0,0.4,0.3,0.4,0.6,0.4c0.1,0.2,0.1,0.4,0.1,0.6
		c0.2-0.1,0.5-0.4,0.7-0.6c0.6-0.3,0.6-0.1,0.9-0.8C142.4,626,143.2,625,144.1,624.2z M125.8,622.6c-0.8-0.1-1.1,1.1-0.4,1.4
		c0-0.3-0.1-0.7,0.1-0.9c0.2-0.1,0.4-0.1,0.6-0.1l0.2-0.1C126.1,622.8,126,622.8,125.8,622.6z"/>
</g>
<text transform="matrix(1 0 0 1 185.6501 472.7799)"><tspan x="0" y="0" class="st3 st4 st5">Sitios</tspan><tspan x="0" y="20.5" class="st3 st4 st5">Evaluados:</tspan></text>
<text transform="matrix(1 0 0 1 222.887 521.7799)"><tspan x="0" y="0" class="st3 st6 st5">0 - 20%</tspan><tspan x="0" y="32.5" class="st3 st6 st5">20 - 40%</tspan><tspan x="0" y="65" class="st3 st6 st5">40 - 65%</tspan><tspan x="0" y="97.5" class="st3 st6 st5">60 - 80%</tspan><tspan x="0" y="130" class="st3 st6 st5">80 - 100%</tspan></text>
<rect x="185.7" y="503" class="st7" width="25.2" height="25.2"/>
<rect x="185.7" y="535.7" class="st8" width="25.2" height="25.2"/>
<rect x="185.7" y="568.4" class="st9" width="25.2" height="25.2"/>
<rect x="185.7" y="601.1" class="st10" width="25.2" height="25.2"/>
<rect x="185.7" y="633.8" class="st11" width="25.2" height="25.2"/>
</svg>
