<svg xmlns="http://www.w3.org/2000/svg" viewBox="0 0 1559.06 1559.06"><defs><style>.cls-1{fill:#e6354d;}.cls-2{fill:none;}</style></defs><title>ile</title><g id="Capa_2" data-name="Capa 2"><g id="Capa_1-2" data-name="Capa 1"><path class="cls-1" d="M1342,1190.55a30.87,30.87,0,0,1-15.25-4l-192-109.08a28.38,28.38,0,0,0-19.26-3.29,793.57,793.57,0,0,1-140.08,12.39C662,1086.55,407,906.06,407,684.22S662,281.91,975.42,281.89s568.47,180.49,568.47,402.33c0,115.46-70.8,225.69-194.24,302.42h0a28.45,28.45,0,0,0-12.58,31.5l34.82,133.76a30.87,30.87,0,0,1-29.88,38.65Zm-221.37-178.61a90.38,90.38,0,0,1,44.63,11.83l128.45,73-16.41-63a89.92,89.92,0,0,1,39.74-99.51c104.91-65.21,165.08-156.32,165.08-250,0-187.8-227.31-340.58-506.72-340.58S468.73,496.44,468.73,684.22,696,1024.8,975.42,1024.8a731.35,731.35,0,0,0,129.18-11.42A91.26,91.26,0,0,1,1120.65,1011.95Zm212.7-51.53h0Z"/><path class="cls-1" d="M217,1277.17a30.87,30.87,0,0,1-29.88-38.65L222,1104.77a28.53,28.53,0,0,0-12.64-31.56C85.95,996.52,15.17,886.31,15.17,770.84c0-221.85,255-402.33,568.43-402.33,15.73,0,31.27.47,46.65,1.32a30.88,30.88,0,0,1,29.11,32.54c-1,17-15.41,29.73-32.54,29.11q-21.37-1.19-43.22-1.22C304.21,430.25,76.91,583,76.91,770.84c0,93.65,60.15,184.76,165,249.94a90,90,0,0,1,39.78,99.56l-16.41,63,128.43-73A91.36,91.36,0,0,1,454.41,1100,729.82,729.82,0,0,0,583.6,1111.4c122.61,0,241.14-30.23,333.77-85.12a30.87,30.87,0,1,1,31.47,53.11c-102,60.47-231.73,93.76-365.24,93.76a791.64,791.64,0,0,1-140.13-12.4,29.14,29.14,0,0,0-19.27,3.3L232.26,1273.13A30.81,30.81,0,0,1,217,1277.17Z"/><rect class="cls-2" width="1559.06" height="1559.06"/></g></g></svg>