<svg xmlns="http://www.w3.org/2000/svg" viewBox="0 0 3676 1335"><defs><style>.cls-1{fill:#e6642c;}.cls-2{fill:#e6354d;}.cls-3{fill:none;}</style></defs><title>logo</title><g id="Capa_2" data-name="Capa 2"><g id="Capa_1-2" data-name="Capa 1"><path class="cls-1" d="M568.92,652.93,717.71,280.57H890.88l-261.79,613H505.51l-257.73-613H420.94Z"/><path class="cls-1" d="M1006.62,787.08l-42.29,106.5H795.24l235.76-613h174l230.89,613H1266l-39.84-106.5ZM1118,470h-1.61l-65.85,195.12H1183Z"/><path class="cls-1" d="M1556.91,280.57h156.92l124.38,327.64,131.7-327.64h158.54l92.69,613H2061.79l-44.72-352.84h-1.62L1868.3,893.58h-63.41L1664.24,540.74h-1.64l-51.22,352.84H1452.85Z"/><path class="cls-1" d="M3299.36,438.3c-29.27-24.39-66.66-40.65-105.69-40.65-29.26,0-68.28,17.07-68.28,51.22,0,35.77,43.07,49.59,70.72,58.53l40.64,12.19c85.36,25.2,151.23,68.3,151.23,167.48,0,61-14.65,123.58-63.44,165-48,40.65-112.18,57.72-174,57.72-77.24,0-152.84-26-215.45-69.92l68.31-128.45c39.83,35,87,63.41,141.46,63.41,37.39,0,77.24-18.7,77.24-61.8,0-44.71-62.6-60.16-96.74-69.91-100-28.45-165.86-54.47-165.86-173.17,0-124.39,88.61-205.68,211.36-205.68,61.8,0,137.42,19.51,191.88,50.4Z"/><path class="cls-2" d="M2577.33,257.17c-183.22,0-332.3,149.08-332.3,332.32,0,47.82,9.79,93.46,29,135.68,83.08,181.78,242.4,373.76,289.28,428.26a18.44,18.44,0,0,0,28,0c46.83-54.5,206.15-246.43,289.23-428.26,19.31-42.22,29.1-87.86,29.1-135.68C2909.65,406.25,2760.57,257.17,2577.33,257.17Zm173.51,402.6H2628.42V794.43H2536.6V659.77H2402V561.83H2536.6V445.54h91.82v116.3h122.42Z"/><rect class="cls-3" width="3676" height="1335"/></g></g></svg>