<svg xmlns="http://www.w3.org/2000/svg" viewBox="0 0 77.24 79.25"><defs><style>.cls-1{fill:#fff;}</style></defs><title>messenger</title><g id="Capa_2" data-name="Capa 2"><g id="Capa_1-2" data-name="Capa 1"><g id="surface1"><path class="cls-1" d="M38.62,0C17.41,0,0,16.53,0,37A36.09,36.09,0,0,0,12.87,64.37V79.25l14.28-7.14A39.54,39.54,0,0,0,38.62,74c21.21,0,38.62-16.53,38.62-37S59.83,0,38.62,0Zm0,6.44C56.51,6.44,70.8,20.16,70.8,37S56.51,67.58,38.62,67.58a33.69,33.69,0,0,1-11-1.91l-1.31-.4-7,3.52V61.55l-1.21-1A29.91,29.91,0,0,1,6.44,37C6.44,20.16,20.73,6.44,38.62,6.44ZM35,26.85,15.59,47.37,33,37.71l9.25,10L61.45,26.85l-17,9.55Z"/></g></g></g></svg>