<?xml version="1.0" encoding="utf-8"?>
<!-- Generator: Adobe Illustrator 21.0.0, SVG Export Plug-In . SVG Version: 6.00 Build 0)  -->
<svg version="1.1" id="Capa_1" xmlns="http://www.w3.org/2000/svg" xmlns:xlink="http://www.w3.org/1999/xlink" x="0px" y="0px"
	 viewBox="0 0 1559.1 1559.1" style="enable-background:new 0 0 1559.1 1559.1;" xml:space="preserve">
<style type="text/css">
	.st0{fill:#E6354D;}
	.st1{fill:none;}
	.st2{fill:#E6344D;}
	.st3{fill:#FFFFFF;}
</style>
<title>condones</title>
<g id="Capa_2">
	<g id="Capa_1-2">
		<path class="st0" d="M984.1,1202.8H583.7c-17,0-30.9-13.8-30.9-30.9V469.3c0-89.1,49.8-168.5,128.5-207.2
			c11.6-56.6,66.9-93.2,123.6-81.5C846,188.9,878,221,886.5,262c78.7,38.7,128.5,118.1,128.5,207.2v702.6
			C1015,1188.9,1001.1,1202.8,984.1,1202.8C984.1,1202.8,984.1,1202.8,984.1,1202.8z M614.6,1141h338.6V469.3
			c0-70-41.9-131.9-106.8-157.5c-11.8-4.7-19.5-16.1-19.5-28.7c0.7-23.7-17.9-43.5-41.6-44.2c-23.7-0.7-43.5,17.9-44.2,41.6
			c0,0.9,0,1.7,0,2.6c0,12.7-7.7,24.1-19.5,28.7c-64.9,25.7-106.9,87.5-106.9,157.5V1141z"/>
		<path class="st0" d="M990.9,1360.9h-414c-60.7,0-110-49.3-110-109.9c0.1-60.7,49.3-109.9,110-110h414c60.7,0,110,49.2,110,109.9
			C1100.9,1311.7,1051.6,1360.9,990.9,1360.9L990.9,1360.9z M576.9,1202.8c-26.6,0-48.2,21.6-48.2,48.2c0,26.6,21.6,48.2,48.2,48.2
			h414c26.6,0,48.2-21.6,48.2-48.2c0-26.6-21.6-48.2-48.2-48.2H576.9z"/>
		<rect class="st1" width="1559.1" height="1559.1"/>
	</g>
</g>
<g>
	<path class="st2" d="M1472.1,1194.2c0,142.1-115.2,257.2-257.2,257.2c-142,0-257.2-115.1-257.2-257.2
		c0-142,115.2-257.1,257.2-257.1C1356.9,937,1472.1,1052.1,1472.1,1194.2z"/>
</g>
<path class="st3" d="M1170,1306.7c-6.6,0-13.3-2.6-18.3-7.6l-84.2-84.4c-10.1-10.1-10.1-26.5,0-36.6c10.1-10.2,26.6-10,36.6,0
	l65.9,66.1l155.4-154.9c10.1-10.1,26.5-10.1,36.7,0c10.1,10.1,10.1,26.5-0.1,36.6l-173.8,173.2
	C1183.3,1304.2,1176.6,1306.7,1170,1306.7z"/>
</svg>
