<?xml version="1.0" encoding="utf-8"?>
<!-- Generator: Adobe Illustrator 21.0.0, SVG Export Plug-In . SVG Version: 6.00 Build 0)  -->
<svg version="1.1" id="Capa_1" xmlns="http://www.w3.org/2000/svg" xmlns:xlink="http://www.w3.org/1999/xlink" x="0px" y="0px"
	 viewBox="0 0 1559.1 1559.1" style="enable-background:new 0 0 1559.1 1559.1;" xml:space="preserve">
<style type="text/css">
	.st0{fill:#E6354D;}
	.st1{fill:#E5364E;}
	.st2{fill:none;}
	.st3{fill:#E6344D;}
	.st4{fill:#FFFFFF;}
</style>
<title>deteccion</title>
<g id="Capa_2">
	<g id="Capa_1-2">
		<path class="st0" d="M1178,221.6H978.7c-18.8-25.1-48.3-39.8-79.7-39.8h-50.8c-21.8-38-70.3-51.1-108.2-29.3
			c-12.2,7-22.3,17.1-29.3,29.3H660c-31.3,0-60.9,14.8-79.7,39.8H381c-55,0.1-99.6,44.7-99.6,99.6v996.3c0.1,55,44.6,99.6,99.6,99.6
			h797c55-0.1,99.6-44.6,99.6-99.6V321.2C1277.6,266.2,1233,221.7,1178,221.6z M600.2,281.4c0-33,26.8-59.8,59.8-59.8h63.4
			c8.4,0,15.9-5.3,18.8-13.2c7.1-20.6,29.6-31.6,50.2-24.4c11.5,4,20.5,13,24.4,24.4c2.8,7.9,10.4,13.2,18.8,13.2H899
			c33,0,59.8,26.8,59.8,59.8v59.8H600.2V281.4z M1237.8,1317.5c0,33-26.8,59.7-59.8,59.8H381c-33,0-59.7-26.8-59.8-59.8V321.2
			c0-33,26.8-59.8,59.8-59.8h181.3c-1.3,6.6-2,13.2-2,19.9v79.7c0,11,8.8,20,19.8,20c0,0,0,0,0.1,0h398.5c11,0,20-8.9,20-19.9
			c0,0,0-0.1,0-0.1v-79.7c0-6.7-0.7-13.4-2-19.9H1178c33,0,59.7,26.8,59.8,59.8L1237.8,1317.5z"/>
		<path class="st0" d="M1158.1,1257.8H400.9V349h171.8c11,0,19.9-8.9,19.9-19.9c0-11-8.9-19.9-19.9-19.9c0,0,0,0,0,0H381
			c-11,0-19.9,8.9-20,19.9v948.6c0,11,9,19.9,20,19.9h797c11,0,20-8.9,20-19.9c0,0,0,0,0-0.1V329.1c0-11-8.9-19.9-19.9-19.9
			c0,0,0,0-0.1,0H986.3c-11,0-19.9,8.9-19.9,19.9c0,11,8.9,19.9,19.9,19.9c0,0,0,0,0,0h171.8"/>
		<path d="M779.5,885.6"/>
		<path class="st1" d="M779.5,941.2c-22.1,0-40.1-17.9-40.1-40.1c0,0,0,0,0,0V658c0.3-22.1,18.6-39.8,40.7-39.5
			c21.7,0.3,39.1,17.8,39.5,39.5v243.1C819.6,923.2,801.7,941.2,779.5,941.2z"/>
		<path class="st1" d="M907.3,819.6H651.7c-22.1-0.3-39.8-18.6-39.5-40.7c0.3-21.7,17.8-39.1,39.5-39.5h255.6
			c22.1,0.3,39.8,18.6,39.5,40.7C946.4,801.8,929,819.3,907.3,819.6z"/>
		<rect class="st2" width="1559.1" height="1559.1"/>
	</g>
</g>
<g>
	<path class="st3" d="M1472.1,1194.2c0,142.1-115.2,257.2-257.2,257.2c-142,0-257.2-115.1-257.2-257.2
		c0-142,115.2-257.1,257.2-257.1C1356.9,937,1472.1,1052.1,1472.1,1194.2z"/>
</g>
<path class="st4" d="M1170,1306.7c-6.6,0-13.3-2.6-18.3-7.6l-84.2-84.4c-10.1-10.1-10.1-26.5,0-36.6c10.1-10.2,26.6-10,36.6,0
	l65.9,66.1l155.4-154.9c10.1-10.1,26.5-10.1,36.7,0c10.1,10.1,10.1,26.5-0.1,36.6l-173.8,173.2
	C1183.3,1304.2,1176.6,1306.7,1170,1306.7z"/>
</svg>
