<svg xmlns="http://www.w3.org/2000/svg" viewBox="0 0 1559.06 1559.06"><defs><style>.cls-1{fill:#e6354d;}.cls-2{fill:#e5364e;}.cls-3{fill:none;}</style></defs><title>deteccion</title><g id="Capa_2" data-name="Capa 2"><g id="Capa_1-2" data-name="Capa 1"><path class="cls-1" d="M1178,221.59H978.73a99.59,99.59,0,0,0-79.66-39.84H848.31a79.3,79.3,0,0,0-137.57,0H660a99.58,99.58,0,0,0-79.66,39.84H381a99.77,99.77,0,0,0-99.63,99.65v996.28A99.74,99.74,0,0,0,381,1417.15h797a99.74,99.74,0,0,0,99.63-99.63V321.24A99.77,99.77,0,0,0,1178,221.59ZM600.2,281.38A59.86,59.86,0,0,1,660,221.59H723.4a20,20,0,0,0,18.79-13.23,39.49,39.49,0,0,1,74.66,0,19.94,19.94,0,0,0,18.79,13.23h63.41a59.86,59.86,0,0,1,59.79,59.79v59.79H600.2Zm637.62,1036.14a59.84,59.84,0,0,1-59.77,59.77H381a59.85,59.85,0,0,1-59.79-59.77V321.24A59.85,59.85,0,0,1,381,261.45H562.34a101,101,0,0,0-2,19.93v79.68a19.92,19.92,0,0,0,19.89,20h398.5a19.94,19.94,0,0,0,20-20V281.38a99.67,99.67,0,0,0-2-19.93H1178a59.85,59.85,0,0,1,59.77,59.79Zm0,0"/><path class="cls-1" d="M1158.14,1257.75H400.92V349H572.74a19.93,19.93,0,1,0,0-39.86H381a20,20,0,0,0-19.95,19.93V1277.7A20,20,0,0,0,381,1297.61h797A19.93,19.93,0,0,0,1198,1277.7V329.12A19.94,19.94,0,0,0,1178,309.19H986.33a19.93,19.93,0,1,0,0,39.86h171.8m19.91-87.6"/><path d="M779.53,885.61"/><path class="cls-2" d="M779.53,941.18a40.09,40.09,0,0,1-40.1-40.1V658a40.1,40.1,0,0,1,80.19,0V901.09A40.09,40.09,0,0,1,779.53,941.18Z"/><path class="cls-2" d="M907.32,819.6H651.74a40.1,40.1,0,0,1,0-80.19H907.32a40.1,40.1,0,0,1,0,80.19Z"/><rect class="cls-3" width="1559.06" height="1559.06"/></g></g></svg>