<?xml version="1.0" encoding="utf-8"?>
<!-- Generator: Adobe Illustrator 21.0.0, SVG Export Plug-In . SVG Version: 6.00 Build 0)  -->
<svg version="1.1" id="Capa_1" xmlns="http://www.w3.org/2000/svg" xmlns:xlink="http://www.w3.org/1999/xlink" x="0px" y="0px"
	 viewBox="0 0 1559.1 1559.1" style="enable-background:new 0 0 1559.1 1559.1;" xml:space="preserve">
<style type="text/css">
	.st0{fill:#E6354D;}
	.st1{fill:none;}
	.st2{fill:#E6344D;}
	.st3{fill:#FFFFFF;}
</style>
<g id="Capa_2">
	<g id="Capa_1-2">
		<path class="st0" d="M1342,1190.6c-5.3,0-10.6-1.4-15.3-4l-192-109.1c-5.8-3.3-12.7-4.5-19.3-3.3c-46.2,8.3-93.1,12.4-140.1,12.4
			C662,1086.6,407,906.1,407,684.2s255-402.3,568.4-402.3s568.5,180.5,568.5,402.3c0,115.5-70.8,225.7-194.2,302.4l0,0
			c-10.7,6.6-15.8,19.4-12.6,31.5l34.8,133.8c4.3,16.5-5.6,33.4-22.1,37.7C1347.3,1190.2,1344.6,1190.6,1342,1190.6L1342,1190.6z
			 M1120.6,1011.9c15.7,0,31,4.1,44.6,11.8l128.4,73l-16.4-63c-10.1-38.3,6-78.7,39.7-99.5c104.9-65.2,165.1-156.3,165.1-250
			c0-187.8-227.3-340.6-506.7-340.6S468.7,496.4,468.7,684.2s227.3,340.6,506.7,340.6c43.3,0,86.5-3.8,129.2-11.4
			C1109.9,1012.4,1115.3,1012,1120.6,1011.9L1120.6,1011.9z M1333.3,960.4L1333.3,960.4z"/>
		<path class="st0" d="M217,1277.2c-17,0-30.9-13.8-30.9-30.9c0-2.6,0.3-5.2,1-7.8l34.9-133.8c3.2-12.2-1.9-25-12.6-31.6
			C85.9,996.5,15.2,886.3,15.2,770.8c0-221.9,255-402.3,568.4-402.3c15.7,0,31.3,0.5,46.7,1.3c17,1,30.1,15.5,29.1,32.5
			c-1,17-15.4,29.7-32.5,29.1c-14.2-0.8-28.7-1.2-43.2-1.2C304.2,430.3,76.9,583,76.9,770.8c0,93.7,60.1,184.8,165,249.9
			c33.7,20.8,49.9,61.2,39.8,99.6l-16.4,63l128.4-73c18.4-10.4,39.9-14,60.7-10.3c42.6,7.6,85.9,11.4,129.2,11.4
			c122.6,0,241.1-30.2,333.8-85.1c14.5-8.9,33.5-4.3,42.4,10.2c8.9,14.5,4.3,33.5-10.2,42.4c-0.3,0.2-0.5,0.3-0.8,0.5
			c-102,60.5-231.7,93.8-365.2,93.8c-47,0-93.9-4.1-140.1-12.4c-6.6-1.2-13.4,0-19.3,3.3l-191.9,109.1
			C227.6,1275.8,222.4,1277.2,217,1277.2z"/>
		<rect class="st1" width="1559.1" height="1559.1"/>
	</g>
</g>
<g>
	<path class="st2" d="M1472.1,1194.2c0,142.1-115.2,257.2-257.2,257.2c-142,0-257.2-115.1-257.2-257.2
		c0-142,115.2-257.1,257.2-257.1C1356.9,937,1472.1,1052.1,1472.1,1194.2z"/>
</g>
<path class="st3" d="M1170,1306.7c-6.6,0-13.3-2.6-18.3-7.6l-84.2-84.4c-10.1-10.1-10.1-26.5,0-36.6c10.1-10.2,26.6-10,36.6,0
	l65.9,66.1l155.4-154.9c10.1-10.1,26.5-10.1,36.7,0c10.1,10.1,10.1,26.5-0.1,36.6l-173.8,173.2
	C1183.3,1304.2,1176.6,1306.7,1170,1306.7z"/>
</svg>
