<?xml version="1.0" encoding="utf-8"?>
<!-- Generator: Adobe Illustrator 21.0.0, SVG Export Plug-In . SVG Version: 6.00 Build 0)  -->
<svg version="1.1" id="Capa_1" xmlns="http://www.w3.org/2000/svg" xmlns:xlink="http://www.w3.org/1999/xlink" x="0px" y="0px"
	 viewBox="0 0 3676 1335" style="enable-background:new 0 0 3676 1335;" xml:space="preserve">
<style type="text/css">
	.st0{fill:#FFFFFF;}
	.st1{fill:none;}
</style>
<title>logo</title>
<g id="Capa_2">
	<g id="Capa_1-2">
		<path class="st0" d="M568.9,652.9l148.8-372.4h173.2l-261.8,613H505.5l-257.7-613h173.2L568.9,652.9z"/>
		<path class="st0" d="M1006.6,787.1l-42.3,106.5H795.2l235.8-613h174l230.9,613H1266l-39.8-106.5H1006.6z M1118,470h-1.6
			l-65.8,195.1H1183L1118,470z"/>
		<path class="st0" d="M1556.9,280.6h156.9l124.4,327.6l131.7-327.6h158.5l92.7,613h-159.3l-44.7-352.8h-1.6l-147.2,352.9h-63.4
			l-140.7-352.8h-1.6l-51.2,352.8h-158.5L1556.9,280.6z"/>
		<path class="st0" d="M3299.4,438.3c-29.3-24.4-66.7-40.6-105.7-40.6c-29.3,0-68.3,17.1-68.3,51.2c0,35.8,43.1,49.6,70.7,58.5
			l40.6,12.2c85.4,25.2,151.2,68.3,151.2,167.5c0,61-14.6,123.6-63.4,165c-48,40.7-112.2,57.7-174,57.7c-77.2,0-152.8-26-215.4-69.9
			l68.3-128.5c39.8,35,87,63.4,141.5,63.4c37.4,0,77.2-18.7,77.2-61.8c0-44.7-62.6-60.2-96.7-69.9c-100-28.5-165.9-54.5-165.9-173.2
			c0-124.4,88.6-205.7,211.4-205.7c61.8,0,137.4,19.5,191.9,50.4L3299.4,438.3z"/>
		<path class="st0" d="M2577.3,257.2c-183.2,0-332.3,149.1-332.3,332.3c0,47.8,9.8,93.5,29,135.7
			c83.1,181.8,242.4,373.8,289.3,428.3c6.6,7.7,18.3,8.6,26,2c0.7-0.6,1.4-1.3,2-2c46.8-54.5,206.1-246.4,289.2-428.3
			c19.3-42.2,29.1-87.9,29.1-135.7C2909.6,406.3,2760.6,257.2,2577.3,257.2z M2750.8,659.8h-122.4v134.7h-91.8V659.8H2402v-97.9
			h134.6V445.5h91.8v116.3h122.4V659.8z"/>
		<rect y="0" class="st1" width="3676" height="1335"/>
	</g>
</g>
</svg>
