<?xml version="1.0" encoding="utf-8"?>
<!-- Generator: Adobe Illustrator 21.0.0, SVG Export Plug-In . SVG Version: 6.00 Build 0)  -->
<svg version="1.1" id="Capa_1" xmlns="http://www.w3.org/2000/svg" xmlns:xlink="http://www.w3.org/1999/xlink" x="0px" y="0px"
	 viewBox="0 0 1559.1 1559.1" style="enable-background:new 0 0 1559.1 1559.1;" xml:space="preserve">
<style type="text/css">
	.st0{fill:#E6334C;}
</style>
<title>vih</title>
<g>
	<path class="st0" d="M1399.9,546.6c-69.6-162.3-187.9-280.3-351.5-350.1c-81.8-34.9-167.4-52.7-256.9-52.7
		c-89.5,0-174.5,17.6-256.2,52.7C373,266.2,254.2,384.1,184.5,546.6c-34.9,81.4-52,166.7-52,256.2c0,89.5,17,175.5,52,256.9
		c69.7,162.5,188.5,281.2,350.8,350.8c81.7,35.1,166.7,52.7,256.2,52.7s175.2-17.8,256.9-52.7c163.6-69.8,281.9-188.5,351.5-350.8
		c35-81.7,52.7-167.4,52.7-256.9C1452.6,713.3,1435,628.3,1399.9,546.6L1399.9,546.6z M1294.5,1094.4
		c-51.8,88.8-122.8,159.4-212.2,211.5c-88.9,51.8-186.2,78-290.9,78c-78.7,0-153.7-15.2-225.2-46.2c-71.5-31-133.2-71.8-184.7-123.4
		c-51.6-51.6-92.7-113.9-123.4-185.5c-30.6-71.3-45.5-147.2-45.5-225.9c0-104.7,25.7-201.5,77.2-290.1
		c51.7-88.9,122.7-159.5,211.5-211.5c88.7-52,185.5-78,290.1-78c104.7,0,202,26.1,290.8,78c89.4,52.1,160.2,122.7,212.2,211.5
		c52,88.8,77.9,185.5,77.9,290.1C1372.5,907.5,1346.6,1005,1294.5,1094.4L1294.5,1094.4z M1294.5,1094.4"/>
	<path class="st0" d="M833.3,797.1V423.2c0-22.4-19.5-40.4-41.9-40.4c-20.9,0-39.7,18-39.7,40.4v379.7c0,0.7,1.4,3.6,1.4,5.8
		c-1.4,13,2.2,23.8,10.8,32.5l215.8,215.8c14.4,14.5,41.1,14.5,55.6,0c16.6-16.6,15.5-40.7,0-56.3L833.3,797.1z M833.3,797.1"/>
</g>
</svg>
