<?xml version="1.0" encoding="utf-8"?>
<!-- Generator: Adobe Illustrator 21.0.0, SVG Export Plug-In . SVG Version: 6.00 Build 0)  -->
<svg version="1.1" id="Capa_1" xmlns="http://www.w3.org/2000/svg" xmlns:xlink="http://www.w3.org/1999/xlink" x="0px" y="0px"
	 viewBox="0 0 1559.1 1559.1" style="enable-background:new 0 0 1559.1 1559.1;" xml:space="preserve">
<style type="text/css">
	.st0{fill:none;}
	.st1{fill:#E5344C;}
</style>
<title>salud</title>
<g id="Capa_2">
	<g id="Capa_1-2">
		<rect class="st0" width="1559.1" height="1559.1"/>
	</g>
</g>
<g>
	<path class="st1" d="M870,194.5h-66v-51.1c0-15.5-8.6-28.1-24.1-28.1c-15.5,0-24.1,12.6-24.1,28.1v51.1h-63.2
		c-15.5,0-28.1,16.6-28.1,32.1s12.6,32.1,28.1,32.1h63.2v53.4c0,15.5,8.6,28.1,24.1,28.1c15.5,0,24.1-12.6,24.1-28.1v-53.4h66
		c15.5,0,28.1-16.6,28.1-32.1S885.5,194.5,870,194.5z"/>
	<path class="st1" d="M715.6,837.1H458.5c-13.3,0-24.1,10.8-24.1,24.1v208.9c0,13.3,10.8,24.1,24.1,24.1h257.1
		c13.3,0,24.1-10.8,24.1-24.1V861.2C739.7,847.9,728.9,837.1,715.6,837.1z M691.5,1046H482.6V885.3h208.9V1046z"/>
	<path class="st1" d="M715.6,531.9H458.5c-13.3,0-24.1,10.8-24.1,24.1v192.8c0,13.3,10.8,24.1,24.1,24.1h257.1
		c13.3,0,24.1-10.8,24.1-24.1V556C739.7,542.7,728.9,531.9,715.6,531.9z M691.5,724.7H482.6V580.1h208.9V724.7z"/>
	<path class="st1" d="M1085.1,837.1H828.1c-13.3,0-24.1,10.8-24.1,24.1v208.9c0,13.3,10.8,24.1,24.1,24.1h257.1
		c13.3,0,24.1-10.8,24.1-24.1V861.2C1109.2,847.9,1098.4,837.1,1085.1,837.1z M1061,1046H852.2V885.3H1061V1046z"/>
	<path class="st1" d="M1085.1,531.9H828.1c-13.3,0-24.1,10.8-24.1,24.1v192.8c0,13.3,10.8,24.1,24.1,24.1h257.1
		c13.3,0,24.1-10.8,24.1-24.1V556C1109.2,542.7,1098.4,531.9,1085.1,531.9z M1061,724.7H852.2V580.1H1061V724.7z"/>
	<path class="st1" d="M1446.4,612.2h-176.5V375.8V328c0-49.1-39.4-85.4-88.5-85.4h-104.3V57.9c0-13.3-10.8-24.1-24.1-24.1H490.6
		c-13.3,0-24.1,10.8-24.1,24.1v184.8h-88.3c-49.1,0-88.5,36.3-88.5,85.4v45.2v239H113.3c-61.7,0-112.7,52.7-112.7,114.4v72.1v435.7
		v72.1c0,61.7,51.1,109.1,112.7,109.1h181.9c12.8,32.1,45.2,64.3,83.1,64.3h248.1c46.9,0,81.2-42.5,81.2-89.3v-119.5h144.6v119.5
		c0,46.9,34.3,89.3,81.1,89.3h248.2c35.1,0,64.8-32.1,79.4-64.3h185.5c61.7,0,112.7-47.4,112.7-109.1v-72.1V798.7v-72.1
		C1559.1,664.9,1508,612.2,1446.4,612.2z M1269.9,1046h112.5v112.5h-112.5V1046z M1269.9,788.9h112.5v112.5h-112.5V788.9z M514.7,82
		h514.1v305.3H514.7V82z M289.8,901.4H161.3V788.9h128.5V901.4z M289.8,1158.5H161.3V1046h128.5V1158.5z M48.8,1306.4v-72.1V798.7
		v-72.1c0-35.4,29.1-66.2,64.5-66.2h176.5v80.3H137.2c-13.3,0-24.1,10.8-24.1,24.1v160.7c0,13.3,10.8,24.1,24.1,24.1h152.6v48.2
		H137.2c-13.3,0-24.1,10.8-24.1,24.1v160.7c0,13.3,10.8,24.1,24.1,24.1h152.6v134.6v26.1H113.3C77.9,1367.3,48.8,1341.8,48.8,1306.4
		z M1221.7,1370c0,31.9-17.4,61.6-40.2,61.6H933.3c-20.6,0-32.9-20.5-32.9-41.1v-127.9c0-18.3-19.3-39.8-37.6-39.8H697
		c-18.3,0-37.7,21.5-37.7,39.8v127.9c0,20.6-12.4,41.1-33,41.1H378.3c-22.8,0-40.3-22.3-40.3-45.1v-45.2v-968V328
		c0-22.8,17.4-37.2,40.3-37.2h88.3v120.5c0,13.3,10.8,24.1,24.1,24.1H1053c13.3,0,24.1-10.8,24.1-24.1V290.9h104.3
		c22.8,0,40.3,14.3,40.3,37.2v47.7v965.5V1370z M1510.9,1306.4c0,35.4-29.1,60.9-64.5,60.9h-175.9c0,0-0.5,2.9-0.5,2.7v-28.7v-134.6
		h136.6c13.3,0,24.1-10.8,24.1-24.1v-160.7c0-13.3-10.8-24.1-24.1-24.1h-136.6v-48.2h136.6c13.3,0,24.1-10.8,24.1-24.1V764.8
		c0-13.3-10.8-24.1-24.1-24.1h-136.6v-80.3h176.5c35.4,0,64.5,30.8,64.5,66.2v72.1v435.7V1306.4z"/>
</g>
</svg>
