<svg xmlns="http://www.w3.org/2000/svg" viewBox="0 0 1559.06 1559.06"><defs><style>.cls-1{fill:#e5364e;}.cls-2{fill:none;}</style></defs><title>salud</title><g id="Capa_2" data-name="Capa 2"><g id="Capa_1-2" data-name="Capa 1"><path class="cls-1" d="M765.15,835.89a36.5,36.5,0,0,1-36.49-36.49V580.5a36.49,36.49,0,0,1,73,0V799.4A36.5,36.5,0,0,1,765.15,835.89Z"/><path class="cls-1" d="M880.2,726.46H650a36.49,36.49,0,0,1,0-73H880.2a36.49,36.49,0,1,1,0,73Z"/><g id="_Grupo_" data-name="&lt;Grupo&gt;"><path class="cls-1" d="M1148.61,1410.12h-168a116.94,116.94,0,0,1-116.8-116.82V1062H686.18V1293.3c0,64.42-52.36,116.82-116.72,116.82h-168a122.31,122.31,0,0,1-122.18-122.18V588.06a34.82,34.82,0,1,1,69.65,0v699.88a52.59,52.59,0,0,0,52.54,52.54h168a47.17,47.17,0,0,0,47.07-47.17V1039.76A47.49,47.49,0,0,1,664,992.35H886.08a47.42,47.42,0,0,1,47.33,47.42V1293.3a47.22,47.22,0,0,0,47.15,47.17h168c29,0,52.5-33.47,52.5-74.59V591.42a34.82,34.82,0,0,1,69.65,0v674.47C1270.75,1346.77,1217.1,1410.12,1148.61,1410.12Z"/><path class="cls-1" d="M1397,752.76a34.67,34.67,0,0,1-22.9-8.6L777.1,222a.55.55,0,0,1-.16-.14,34.47,34.47,0,0,1-4.43-3.6L185.21,743.89A34.83,34.83,0,0,1,138.77,692l587.69-525.5c26.18-23.18,65.6-23.28,91.53-1a48.55,48.55,0,0,1,6,5l596,521.19a34.82,34.82,0,0,1-22.94,61Zm-618-529.49h0ZM774,218.92s0,0,0,0S774,218.94,774,218.92Z"/></g><rect class="cls-2" width="1559.06" height="1559.06"/></g></g></svg>