<svg xmlns="http://www.w3.org/2000/svg" viewBox="0 0 1559.06 1559.06"><defs><style>.cls-1{fill:#e5364e;}.cls-2{fill:none;}</style></defs><title>mac</title><g id="Capa_2" data-name="Capa 2"><g id="Capa_1-2" data-name="Capa 1"><path class="cls-1" d="M460.41,293.34h0l638.24.16a12.07,12.07,0,0,1,11.9,11.92v948.37a12.08,12.08,0,0,1-11.89,11.94l-638.24-.16a12.07,12.07,0,0,1-11.9-11.92V305.24a12.06,12.06,0,0,1,11.9-11.9m0-61.74a73.86,73.86,0,0,0-73.64,73.64v948.41a73.88,73.88,0,0,0,73.64,73.66l638.23.16a73.88,73.88,0,0,0,73.64-73.68V305.41a73.88,73.88,0,0,0-73.64-73.66l-638.23-.16Z"/><path class="cls-1" d="M777,598.6a101.27,101.27,0,1,1,101.3-101.26A101.38,101.38,0,0,1,777,598.6Zm0-146.41a45.14,45.14,0,1,0,45.17,45.15A45.2,45.2,0,0,0,777,452.19Z"/><path class="cls-1" d="M777,1163a101.28,101.28,0,1,1,101.3-101.28A101.39,101.39,0,0,1,777,1163Zm0-146.43a45.15,45.15,0,1,0,45.17,45.15A45.2,45.2,0,0,0,777,1016.56Z"/><path class="cls-1" d="M561.18,1163a28.06,28.06,0,0,1-28.06-28.06V424.13a28.06,28.06,0,1,1,56.13,0v710.79A28.06,28.06,0,0,1,561.18,1163Z"/><path class="cls-1" d="M997.87,1163a28.06,28.06,0,0,1-28.06-28.06V424.13a28.06,28.06,0,1,1,56.13,0v710.79A28.06,28.06,0,0,1,997.87,1163Z"/><rect class="cls-2" width="1559.06" height="1559.06"/></g></g></svg>