<?xml version="1.0" encoding="utf-8"?>
<!-- Generator: Adobe Illustrator 21.0.0, SVG Export Plug-In . SVG Version: 6.00 Build 0)  -->
<svg version="1.1" id="Capa_1" xmlns="http://www.w3.org/2000/svg" xmlns:xlink="http://www.w3.org/1999/xlink" x="0px" y="0px"
	 viewBox="0 0 1559.1 1559.1" style="enable-background:new 0 0 1559.1 1559.1;" xml:space="preserve">
<style type="text/css">
	.st0{fill:#E6354D;}
	.st1{fill:none;}
	.st2{fill:#E6334C;}
</style>
<g id="Capa_2">
	<g id="Capa_1-2">
		<path class="st0" d="M580.8,1184.8c-36.1,0.1-70.7-14.3-96.1-39.8l-69.9-69.9c-53.1-53.1-53.1-139.2,0-192.3l418.9-419
			c12.1-12.1,31.6-12.1,43.7,0c12.1,12.1,12.1,31.6,0,43.7l-419,418.8c-29,29-29,76,0,105l0,0l70,69.9c28,28.1,76.9,28,104.9,0
			L1054.4,680c12.1-12.1,31.6-12.1,43.7,0s12.1,31.6,0,43.7l0,0l-421.2,421.2C651.5,1170.5,616.8,1184.8,580.8,1184.8z"/>
		<path class="st0" d="M1159.4,792.4c-8.2,0-16-3.2-21.8-9L776.5,422.3c-12.1-12.1-12.1-31.6,0-43.7s31.6-12.1,43.7,0l361,361.1
			c12.1,12,12.1,31.6,0,43.7C1175.4,789.1,1167.6,792.4,1159.4,792.4L1159.4,792.4z"/>
		<path class="st0" d="M1306,502.7c-8.2,0-16-3.2-21.8-9L1066,275.4c-12.1-12.1-12.1-31.6,0-43.7s31.6-12.1,43.7,0L1327.9,450
			c12,12.1,12,31.6-0.1,43.7C1322,499.4,1314.2,502.7,1306,502.7z"/>
		<path class="st0" d="M253,1336.3c-17,0-30.9-13.8-30.9-30.9c0-8.2,3.3-16.1,9.1-21.9l218.2-218.2c12.1-12.1,31.6-12.1,43.7,0
			s12.1,31.6,0,43.7l-218.2,218.2C269.1,1333.1,261.2,1336.4,253,1336.3z"/>
		<path class="st0" d="M927.7,553.1c-17,0-30.9-13.8-30.9-30.9c0-8.2,3.3-16.1,9.1-21.9l211.1-211c12.3-11.8,31.8-11.5,43.6,0.8
			c11.5,12,11.5,30.9,0,42.9L949.5,544.1C943.7,549.9,935.9,553.1,927.7,553.1z"/>
		<path class="st0" d="M1040.9,659.3c-17,0-30.9-13.8-30.9-30.8c0-8.2,3.2-16.1,9.1-21.9l211.2-211.1c12.1-12.1,31.6-12.1,43.7,0
			s12.1,31.6,0,43.7l0,0l-211.2,211.1C1056.9,656,1049,659.3,1040.9,659.3z"/>
		<path class="st0" d="M932.1,861.3H539.2c-17.1,0-30.9-13.8-30.9-30.9s13.8-30.9,30.9-30.9h392.9c17.1,0,30.9,13.8,30.9,30.9
			S949.2,861.3,932.1,861.3z"/>
		<rect class="st1" width="1559.1" height="1559.1"/>
	</g>
</g>
<g>
	<path class="st2" d="M1452.6,1094c-27.1-63.3-73.2-109.3-137-136.5c-31.9-13.6-65.3-20.5-100.2-20.5c-34.9,0-68,6.9-99.9,20.5
		c-63.3,27.1-109.6,73.1-136.7,136.5c-13.6,31.7-20.3,65-20.3,99.9c0,34.9,6.6,68.4,20.3,100.2c27.2,63.4,73.5,109.6,136.7,136.8
		c31.9,13.7,65,20.5,99.9,20.5c34.9,0,68.3-6.9,100.2-20.5c63.8-27.2,109.9-73.5,137-136.8c13.7-31.8,20.5-65.3,20.5-100.2
		C1473.1,1159,1466.2,1125.9,1452.6,1094L1452.6,1094z M1411.5,1307.6c-20.2,34.6-47.9,62.1-82.7,82.4
		c-34.6,20.2-72.6,30.4-113.4,30.4c-30.7,0-59.9-5.9-87.8-18c-27.9-12.1-51.9-28-72-48.1c-20.1-20.1-36.1-44.4-48.1-72.3
		c-11.9-27.8-17.7-57.4-17.7-88.1c0-40.8,10-78.6,30.1-113.1c20.2-34.7,47.8-62.2,82.4-82.4c34.6-20.3,72.3-30.4,113.1-30.4
		c40.8,0,78.7,10.2,113.4,30.4c34.9,20.3,62.5,47.8,82.7,82.4c20.3,34.6,30.4,72.3,30.4,113.1
		C1441.9,1234.7,1431.8,1272.7,1411.5,1307.6L1411.5,1307.6z M1411.5,1307.6"/>
	<path class="st2" d="M1231.7,1191.6v-145.8c0-8.7-7.6-15.7-16.3-15.7c-8.2,0-15.5,7-15.5,15.7v148c0,0.3,0.6,1.4,0.6,2.3
		c-0.6,5.1,0.8,9.3,4.2,12.7l84.1,84.1c5.6,5.6,16,5.6,21.7,0c6.5-6.5,6-15.9,0-21.9L1231.7,1191.6z M1231.7,1191.6"/>
</g>
</svg>
