<svg xmlns="http://www.w3.org/2000/svg" viewBox="0 0 1559.06 1559.06"><defs><style>.cls-1{fill:#e6354d;}.cls-2{fill:none;}</style></defs><title>vih</title><g id="Capa_2" data-name="Capa 2"><g id="Capa_1-2" data-name="Capa 1"><path class="cls-1" d="M580.76,1184.75a135,135,0,0,1-96.12-39.84L414.7,1075a136,136,0,0,1,0-192.27L833.64,463.77a30.87,30.87,0,0,1,43.66,43.66L458.37,926.35a74.24,74.24,0,0,0,0,105l70,69.94c28,28.07,76.9,28,104.94,0L1054.4,680.1a30.87,30.87,0,1,1,43.66,43.66L676.91,1144.92A135.11,135.11,0,0,1,580.76,1184.75Z"/><path class="cls-1" d="M1159.38,792.38a30.79,30.79,0,0,1-21.83-9L776.5,422.25a30.87,30.87,0,0,1,43.66-43.66l361.05,361.09a30.87,30.87,0,0,1-21.83,52.71Z"/><path class="cls-1" d="M1306,502.66a30.79,30.79,0,0,1-21.83-9L1066,275.41a30.87,30.87,0,1,1,43.66-43.66L1327.86,450A30.87,30.87,0,0,1,1306,502.66Z"/><path class="cls-1" d="M253,1336.35a30.87,30.87,0,0,1-21.83-52.71l218.19-218.19a30.87,30.87,0,1,1,43.66,43.66L274.86,1327.3A30.79,30.79,0,0,1,253,1336.35Z"/><path class="cls-1" d="M927.67,553.14a30.87,30.87,0,0,1-21.83-52.71L1117,289.32A30.87,30.87,0,0,1,1160.62,333L949.5,544.1A30.79,30.79,0,0,1,927.67,553.14Z"/><path class="cls-1" d="M1040.86,659.3A30.87,30.87,0,0,1,1019,606.59l211.16-211.1a30.87,30.87,0,1,1,43.66,43.66l-211.16,211.1A30.81,30.81,0,0,1,1040.86,659.3Z"/><path class="cls-1" d="M932.12,861.28H539.24a30.87,30.87,0,1,1,0-61.75H932.12a30.87,30.87,0,1,1,0,61.75Z"/><rect class="cls-2" width="1559.06" height="1559.06"/></g></g></svg>